<svg width="104" height="40" viewBox="0 0 104 40" fill="none" xmlns="http://www.w3.org/2000/svg">
<g clip-path="url(#clip0_4615_1288)">
<path d="M103.985 -0.00585938H-0.00146484V39.8501H103.985V-0.00585938Z" stroke="#2B2A29" stroke-width="0.5669" stroke-miterlimit="22.9256"/>
<path d="M91.9521 25.9611H91.1208C90.9627 25.9611 90.8405 25.9254 90.754 25.8553C90.6675 25.7851 90.6231 25.673 90.6231 25.5191C90.6231 25.3701 90.6651 25.2606 90.7503 25.1891C90.8355 25.119 90.959 25.0833 91.1208 25.0833H92.9415C93.1033 25.0833 93.2231 25.1214 93.2997 25.1978C93.3565 25.2544 93.3849 25.3283 93.3849 25.4218C93.3849 25.4945 93.3441 25.5868 93.2638 25.7001L91.9645 27.4547H92.9662C93.1243 27.4547 93.2466 27.4904 93.333 27.5606C93.4195 27.6307 93.4639 27.7415 93.4639 27.8905C93.4639 28.0395 93.4195 28.1503 93.3305 28.223C93.2416 28.2956 93.1206 28.3313 92.9662 28.3313H91.048C90.959 28.3313 90.8973 28.3276 90.8627 28.319C90.8281 28.3104 90.7874 28.2932 90.738 28.2648C90.6898 28.2365 90.6527 28.2008 90.6293 28.1589C90.6046 28.1171 90.5934 28.0617 90.5934 27.9927C90.5934 27.9447 90.6021 27.8955 90.6181 27.8474C90.6342 27.7994 90.675 27.7305 90.7392 27.6418L91.9521 25.9611ZM85.9295 24.1216C85.9295 23.98 85.9727 23.8631 86.0604 23.7683C86.1469 23.6735 86.2617 23.6267 86.4038 23.6267C86.5409 23.6267 86.6545 23.6747 86.7435 23.772C86.8324 23.8692 86.8769 23.9862 86.8769 24.1229V26.1495L87.6476 25.3751C87.7649 25.2581 87.8465 25.183 87.8909 25.151C87.9836 25.082 88.0811 25.0475 88.1824 25.0475C88.3195 25.0475 88.4307 25.0894 88.5159 25.1744C88.6011 25.2593 88.6431 25.3615 88.6431 25.4834C88.6431 25.5807 88.6011 25.6767 88.5159 25.774C88.4912 25.8023 88.4233 25.8725 88.3096 25.9858L87.7995 26.4943L88.595 27.5113C88.6592 27.5926 88.7086 27.6591 88.7407 27.7108C88.7938 27.7957 88.8198 27.8684 88.8198 27.9287C88.8198 28.0371 88.7839 28.1343 88.7111 28.2193C88.6221 28.3202 88.5023 28.3707 88.3529 28.3707C88.2392 28.3707 88.1503 28.351 88.0861 28.3104C88.0218 28.2698 87.9379 28.1836 87.8378 28.0506L86.8904 26.7984L86.8781 27.8758C86.8781 28.0173 86.8349 28.1343 86.7472 28.2291C86.6607 28.3239 86.5458 28.372 86.4038 28.372C86.2667 28.372 86.1531 28.3252 86.0641 28.2328C85.9752 28.1405 85.9307 28.021 85.9307 27.8758V24.1216H85.9295ZM83.2196 27.3648C83.3616 27.3648 83.4851 27.4177 83.5901 27.5224C83.6951 27.627 83.7482 27.7526 83.7482 27.8979C83.7482 28.0432 83.6951 28.1676 83.5901 28.2735C83.4851 28.3781 83.3616 28.4311 83.2196 28.4311C83.0738 28.4311 82.9491 28.3793 82.8465 28.2771C82.7428 28.1737 82.6922 28.0481 82.6922 27.8991C82.6922 27.7576 82.744 27.6344 82.8465 27.5273C82.9491 27.4177 83.0738 27.3648 83.2196 27.3648ZM80.1514 23.6254C80.3095 23.6254 80.4429 23.6796 80.5516 23.7892C80.6603 23.8975 80.7159 24.033 80.7159 24.1943C80.7159 24.3556 80.6616 24.491 80.5516 24.5994C80.4429 24.7077 80.3083 24.7631 80.1514 24.7631C79.9933 24.7631 79.8599 24.7089 79.7513 24.5994C79.6426 24.491 79.587 24.3556 79.587 24.1943C79.587 24.0367 79.6426 23.9025 79.7537 23.7917C79.8649 23.6808 79.997 23.6254 80.1514 23.6254ZM79.6784 25.5376C79.6784 25.4009 79.7216 25.2839 79.8093 25.1891C79.8958 25.0943 80.0106 25.0475 80.1527 25.0475C80.2898 25.0475 80.4034 25.0943 80.4923 25.1867C80.5813 25.279 80.6257 25.396 80.6257 25.5376V27.8733C80.6257 28.0149 80.5825 28.1319 80.4948 28.2267C80.4071 28.3215 80.2935 28.3695 80.1514 28.3695C80.0143 28.3695 79.9007 28.3227 79.8118 28.2304C79.7228 28.138 79.6784 28.0186 79.6784 27.8733V25.5376ZM75.6629 26.6199L75.1713 26.0929C75.0342 25.9439 74.9564 25.8589 74.9403 25.8392C74.8514 25.7309 74.8069 25.6299 74.8069 25.5364C74.8069 25.3911 74.8526 25.2729 74.944 25.183C75.0354 25.0919 75.1417 25.0463 75.2627 25.0463C75.3714 25.0463 75.4603 25.0623 75.527 25.0943C75.5937 25.1263 75.6617 25.1867 75.7308 25.2753L76.2348 25.9045L76.7387 25.2753C76.8153 25.1867 76.8857 25.1263 76.9487 25.0943C77.0117 25.0623 77.0969 25.0463 77.2068 25.0463C77.3279 25.0463 77.4341 25.0919 77.5255 25.183C77.6169 25.2741 77.6626 25.3923 77.6626 25.5364C77.6626 25.6373 77.6218 25.7358 77.5416 25.8331C77.5329 25.8454 77.4526 25.9316 77.2982 26.0929L76.8066 26.6199L77.6144 27.4854C77.6787 27.5544 77.7219 27.6061 77.7417 27.643C77.7824 27.7157 77.8022 27.7982 77.8022 27.8905C77.8022 28.0358 77.754 28.1516 77.6601 28.239C77.565 28.3252 77.4502 28.3695 77.3168 28.3695C77.2476 28.3695 77.1821 28.3547 77.1191 28.3239C77.0561 28.2931 76.982 28.2279 76.898 28.1269L76.236 27.3463L75.574 28.1269C75.4924 28.2279 75.422 28.2931 75.3615 28.3239C75.301 28.3547 75.2318 28.3695 75.1552 28.3695C75.0218 28.3695 74.907 28.3264 74.8119 28.239C74.7168 28.1528 74.6698 28.0358 74.6698 27.8905C74.6698 27.8019 74.6896 27.7206 74.7304 27.648C74.7501 27.616 74.7933 27.5618 74.8576 27.4842L75.6629 26.6199ZM70.6284 26.7048C70.6284 26.9388 70.6865 27.1321 70.8013 27.286C70.9162 27.4387 71.0755 27.5162 71.2781 27.5162C71.4807 27.5162 71.6388 27.4387 71.7549 27.2835C71.8697 27.1284 71.9278 26.9351 71.9278 26.7061C71.9278 26.4758 71.8734 26.2887 71.7635 26.1434C71.6425 25.9821 71.4807 25.9008 71.2781 25.9008C71.0755 25.9008 70.9174 25.9771 70.8013 26.1311C70.6865 26.2837 70.6284 26.4746 70.6284 26.7048ZM72.8739 27.8733C72.8739 28.0149 72.8307 28.1319 72.743 28.2267C72.6565 28.3215 72.5417 28.3695 72.3996 28.3695C72.2983 28.3695 72.2082 28.3387 72.1291 28.2784C72.0501 28.218 71.992 28.1479 71.9562 28.0666C71.7573 28.3092 71.4868 28.4298 71.1435 28.4298C70.7346 28.4298 70.3888 28.2624 70.1059 27.9275C69.8231 27.5926 69.681 27.185 69.681 26.7048C69.681 26.2246 69.8218 25.8183 70.1035 25.4859C70.3851 25.1534 70.7322 24.9872 71.1447 24.9872C71.3312 24.9872 71.4856 25.0131 71.6091 25.066C71.7326 25.119 71.8487 25.2138 71.9587 25.3504C71.9994 25.2655 72.0513 25.1978 72.1168 25.1448C72.1983 25.0808 72.2922 25.0475 72.4021 25.0475C72.5392 25.0475 72.6528 25.0943 72.7418 25.1867C72.8307 25.279 72.8752 25.396 72.8752 25.5376V27.8733H72.8739ZM66.0682 25.9611H65.9595C65.8014 25.9611 65.6791 25.9254 65.5927 25.8553C65.5062 25.7851 65.4618 25.673 65.4618 25.5191C65.4618 25.3701 65.5038 25.2606 65.589 25.1891C65.6742 25.119 65.7977 25.0833 65.9595 25.0833H66.0682V24.4602C66.0682 24.3186 66.1114 24.2004 66.1991 24.1069C66.2856 24.0121 66.4005 23.9653 66.5425 23.9653C66.6796 23.9653 66.7932 24.0121 66.8822 24.1044C66.9711 24.1967 67.0156 24.3162 67.0156 24.4615V25.0845H67.2762C67.4343 25.0845 67.5566 25.1202 67.643 25.1904C67.7295 25.2606 67.774 25.3714 67.774 25.5204C67.774 25.6693 67.7295 25.7801 67.6406 25.8528C67.5516 25.9254 67.4306 25.9611 67.2762 25.9611H67.0156V27.8733C67.0156 28.0149 66.9723 28.1319 66.8847 28.2267C66.7982 28.3215 66.6833 28.3695 66.5413 28.3695C66.4042 28.3695 66.2905 28.3227 66.2016 28.2304C66.1127 28.138 66.0682 28.0186 66.0682 27.8733V25.9611ZM61.319 26.7048C61.319 26.9388 61.3771 27.1321 61.492 27.286C61.6068 27.4387 61.7662 27.5162 61.9687 27.5162C62.1713 27.5162 62.3294 27.4387 62.4455 27.2835C62.5604 27.1284 62.6184 26.9351 62.6184 26.7061C62.6184 26.4758 62.5641 26.2887 62.4542 26.1434C62.3331 25.9821 62.1713 25.9008 61.9687 25.9008C61.7662 25.9008 61.6081 25.9771 61.492 26.1311C61.3759 26.2837 61.319 26.4746 61.319 26.7048ZM63.5646 27.8733C63.5646 28.0149 63.5213 28.1319 63.4336 28.2267C63.3459 28.3215 63.2323 28.3695 63.0903 28.3695C62.989 28.3695 62.8988 28.3387 62.8198 28.2784C62.7407 28.218 62.6827 28.1479 62.6468 28.0666C62.448 28.3092 62.1775 28.4298 61.8341 28.4298C61.4253 28.4298 61.0794 28.2624 60.7966 27.9275C60.5137 27.5926 60.3717 27.185 60.3717 26.7048C60.3717 26.2246 60.5125 25.8183 60.7941 25.4859C61.0757 25.1534 61.4228 24.9872 61.8353 24.9872C62.0218 24.9872 62.1762 25.0131 62.2998 25.066C62.4233 25.119 62.5394 25.2138 62.6493 25.3504C62.6901 25.2655 62.7419 25.1978 62.8074 25.1448C62.8889 25.0808 62.9828 25.0475 63.0927 25.0475C63.2298 25.0475 63.3435 25.0943 63.4324 25.1867C63.5213 25.279 63.5658 25.396 63.5658 25.5376V27.8733H63.5646ZM56.224 26.7048C56.224 26.9388 56.2821 27.1321 56.397 27.286C56.5118 27.4387 56.6712 27.5162 56.8737 27.5162C57.0763 27.5162 57.2344 27.4387 57.3505 27.2835C57.4654 27.1284 57.5234 26.9351 57.5234 26.7061C57.5234 26.4758 57.4691 26.2887 57.3591 26.1434C57.2381 25.9821 57.0763 25.9008 56.8737 25.9008C56.6712 25.9008 56.5131 25.9771 56.397 26.1311C56.2809 26.2837 56.224 26.4746 56.224 26.7048ZM58.4695 27.8733C58.4695 28.0149 58.4263 28.1319 58.3386 28.2267C58.2522 28.3215 58.1373 28.3695 57.9952 28.3695C57.894 28.3695 57.8038 28.3387 57.7247 28.2784C57.6457 28.218 57.5876 28.1479 57.5518 28.0666C57.353 28.3092 57.0825 28.4298 56.7391 28.4298C56.3303 28.4298 55.9844 28.2624 55.7016 27.9275C55.4187 27.5926 55.2767 27.185 55.2767 26.7048C55.2767 26.2246 55.4175 25.8183 55.6991 25.4859C55.9807 25.1534 56.3278 24.9872 56.7403 24.9872C56.9305 24.9872 57.0899 25.0131 57.2196 25.066C57.3171 25.1066 57.4172 25.1694 57.5234 25.2532V24.1216C57.5234 23.98 57.5666 23.8631 57.6543 23.7683C57.742 23.6735 57.8557 23.6267 57.9977 23.6267C58.1348 23.6267 58.2485 23.6747 58.3374 23.772C58.4263 23.8692 58.4708 23.9862 58.4708 24.1229V27.8733H58.4695ZM50.4299 25.5376C50.4299 25.4009 50.4732 25.2839 50.5609 25.1891C50.6473 25.0943 50.7622 25.0475 50.9042 25.0475C51.0216 25.0475 51.1253 25.0796 51.2143 25.1448C51.2871 25.1978 51.3415 25.2655 51.3785 25.3504C51.5317 25.1079 51.8034 24.9872 52.1913 24.9872C52.5396 24.9872 52.8162 25.0759 53.0225 25.2532C53.2535 25.4502 53.3684 25.7346 53.3684 26.1064V27.8733C53.3684 28.0149 53.3251 28.1319 53.2374 28.2267C53.151 28.3215 53.0361 28.3695 52.8941 28.3695C52.757 28.3695 52.6433 28.3227 52.5544 28.2304C52.4655 28.138 52.421 28.0186 52.421 27.8733V26.3662C52.421 26.1963 52.3753 26.0584 52.2839 25.9513C52.1925 25.8442 52.064 25.7912 51.8985 25.7912C51.7404 25.7912 51.6144 25.8442 51.5193 25.9513C51.4242 26.0584 51.3773 26.1963 51.3773 26.3662V27.8733C51.3773 28.0149 51.3341 28.1319 51.2464 28.2267C51.1599 28.3215 51.045 28.3695 50.903 28.3695C50.7659 28.3695 50.6523 28.3227 50.5633 28.2304C50.4744 28.138 50.4299 28.0186 50.4299 27.8733V25.5376ZM47.5928 26.3662C47.5928 26.2369 47.5384 26.1138 47.4285 25.9968C47.3025 25.8602 47.1531 25.7912 46.9789 25.7912C46.8085 25.7912 46.6639 25.8553 46.5454 25.9845C46.4256 26.1138 46.3663 26.2406 46.3663 26.3662H47.5928ZM46.3675 27.02C46.3675 27.1493 46.4181 27.2626 46.5194 27.3586C46.6528 27.4879 46.8554 27.5519 47.1259 27.5519C47.3 27.5519 47.4915 27.5014 47.7027 27.4005C47.9127 27.2995 48.0448 27.249 48.0967 27.249C48.2104 27.249 48.3042 27.286 48.3796 27.3611C48.4549 27.4362 48.492 27.5359 48.492 27.6603C48.492 27.8819 48.3388 28.0654 48.0337 28.2107C47.7286 28.3559 47.3853 28.4286 47.0048 28.4286C46.5108 28.4286 46.1118 28.2648 45.8067 27.9349C45.5017 27.6061 45.3485 27.1961 45.3485 26.7036C45.3485 26.232 45.5041 25.8269 45.8154 25.4908C46.1266 25.1534 46.5231 24.986 47.0048 24.986C47.4544 24.986 47.8262 25.151 48.1214 25.4822C48.4006 25.7974 48.5401 26.1705 48.5401 26.6014C48.5401 26.759 48.5043 26.8673 48.4314 26.9277C48.3586 26.988 48.2412 27.0188 48.0794 27.0188H46.3675V27.02ZM41.4664 25.5376C41.4664 25.4009 41.5096 25.2839 41.5973 25.1891C41.6838 25.0943 41.7987 25.0475 41.9407 25.0475C42.058 25.0475 42.1618 25.0796 42.2507 25.1448C42.3236 25.1978 42.378 25.2655 42.415 25.3504C42.5076 25.2421 42.6028 25.1571 42.7003 25.0968C42.8177 25.0242 42.9412 24.9884 43.0709 24.9884C43.2006 24.9884 43.3142 25.0352 43.4105 25.1276C43.5081 25.2199 43.5563 25.3369 43.5563 25.4785C43.5563 25.6312 43.5019 25.7469 43.392 25.8232C43.3228 25.8713 43.182 25.9267 42.9671 25.9895C42.7522 26.0523 42.6065 26.1311 42.5299 26.2259C42.4533 26.3207 42.415 26.4832 42.415 26.7134V27.8745C42.415 28.0161 42.3718 28.1331 42.2841 28.2279C42.1976 28.3227 42.0828 28.3707 41.9407 28.3707C41.8036 28.3707 41.69 28.3239 41.601 28.2316C41.5121 28.1392 41.4676 28.0198 41.4676 27.8745V25.5376H41.4664ZM37.2508 26.7048C37.2508 26.9388 37.3089 27.1321 37.4237 27.286C37.5386 27.4387 37.698 27.5162 37.9005 27.5162C38.1031 27.5162 38.2612 27.4387 38.3773 27.2835C38.4922 27.1284 38.5502 26.9351 38.5502 26.7061C38.5502 26.4758 38.4959 26.2887 38.3859 26.1434C38.2649 25.9821 38.1031 25.9008 37.9005 25.9008C37.698 25.9008 37.5399 25.9771 37.4237 26.1311C37.3089 26.2837 37.2508 26.4746 37.2508 26.7048ZM89.4694 12.9578C89.2064 12.9578 88.9655 12.8728 88.7802 12.6844C88.5999 12.501 88.5134 12.2695 88.5134 12.0134C88.5134 11.761 88.6011 11.5357 88.7778 11.3547C88.9643 11.1651 89.2051 11.0826 89.4694 11.0826C89.7313 11.0826 89.9684 11.1675 90.155 11.3522C90.3353 11.532 90.4255 11.7585 90.4255 12.0122C90.4255 12.2683 90.3378 12.4985 90.1574 12.682C89.9709 12.8704 89.7325 12.9578 89.4694 12.9578ZM89.467 12.2954C89.6189 12.2954 89.7412 12.1735 89.7412 12.022C89.7412 11.8706 89.6189 11.7487 89.467 11.7487C89.3151 11.7487 89.1928 11.8706 89.1928 12.022C89.1928 12.1735 89.3163 12.2954 89.467 12.2954ZM86.7262 11.5665L87.2313 12.2018L87.2338 11.7413C87.2351 11.5726 87.2832 11.4126 87.4055 11.2919C87.5216 11.1762 87.6723 11.1207 87.8353 11.1207C87.9984 11.1207 88.1515 11.1737 88.2676 11.2894C88.3899 11.4113 88.4369 11.5739 88.4369 11.7425V13.8566C88.4369 14.0253 88.3875 14.1866 88.2652 14.3085C88.1491 14.4242 87.9984 14.4796 87.8353 14.4796C87.6575 14.4796 87.5031 14.4033 87.3808 14.2765C87.3783 14.274 87.3771 14.2728 87.3759 14.2703C87.3079 14.1964 87.2425 14.1127 87.1795 14.0339L86.6743 13.3973L86.6718 13.8578C86.6706 14.0265 86.6224 14.1866 86.5001 14.3072C86.384 14.423 86.2333 14.4784 86.0703 14.4784C85.9073 14.4784 85.7541 14.4254 85.638 14.3097C85.5157 14.1878 85.4688 14.0253 85.4688 13.8566V11.7425C85.4688 11.5739 85.5182 11.4126 85.6405 11.2907C85.7566 11.1749 85.9073 11.1195 86.0703 11.1195C86.2469 11.1195 86.4013 11.1922 86.5236 11.3177C86.594 11.3916 86.6644 11.4864 86.7262 11.5665ZM79.6524 9.38836C79.839 9.38836 79.9909 9.445 80.107 9.55827C80.2231 9.67155 80.2811 9.82915 80.2811 10.0311V11.5874L81.998 9.72942C82.1166 9.60014 82.2179 9.51148 82.3006 9.46223C82.3834 9.41298 82.4847 9.38836 82.6032 9.38836C82.6761 9.38836 82.749 9.4056 82.8243 9.43884C82.8997 9.47208 82.9664 9.51764 83.0257 9.57428C83.0849 9.63092 83.1343 9.69617 83.1739 9.76759C83.2122 9.84023 83.2319 9.91534 83.2319 9.99168C83.2319 10.084 83.2047 10.1776 83.1504 10.2699C83.0961 10.3623 83.0405 10.4374 82.9837 10.494L81.4842 11.9962L83.2702 13.9317C83.4048 14.0758 83.4715 14.2235 83.4715 14.3725C83.4715 14.5535 83.4098 14.7013 83.285 14.8182C83.1603 14.934 83.0034 14.9931 82.8107 14.9931C82.7687 14.9931 82.7255 14.9894 82.6786 14.982C82.6316 14.9746 82.5798 14.9537 82.5229 14.9204C82.4661 14.8872 82.397 14.8342 82.3167 14.7616C82.2364 14.6889 82.1425 14.5917 82.0326 14.4673L80.2774 12.501V14.3516C80.2774 14.5535 80.2194 14.7099 80.1033 14.8244C79.9872 14.9377 79.8352 14.9943 79.6487 14.9943C79.4622 14.9943 79.3103 14.9377 79.1942 14.8244C79.0781 14.7111 79.02 14.5535 79.02 14.3516V10.0311C79.02 9.83038 79.0781 9.67278 79.1942 9.55827C79.314 9.445 79.4659 9.38836 79.6524 9.38836ZM76.0334 12.059C76.2718 12.059 76.467 11.9851 76.6201 11.8386C76.7733 11.6921 76.8499 11.5147 76.8499 11.3079C76.8499 11.0604 76.7745 10.872 76.6251 10.7427C76.4744 10.6135 76.2805 10.5494 76.0421 10.5494H75.343V12.059H76.0334ZM76.2891 9.43515C76.5164 9.43515 76.7424 9.47455 76.9647 9.55458C77.1871 9.63461 77.3872 9.75035 77.5626 9.90303C77.7392 10.0557 77.8812 10.2453 77.9899 10.4719C78.0986 10.6984 78.153 10.9595 78.153 11.2537C78.153 11.5578 78.1097 11.8287 78.0245 12.0664C77.9393 12.304 77.8158 12.5035 77.6552 12.666C77.4946 12.8285 77.3032 12.9541 77.0808 13.0415C76.8585 13.1289 76.6066 13.1733 76.3274 13.1733H75.3405V14.3503C75.3405 14.5523 75.2825 14.7086 75.1651 14.8231C75.049 14.9364 74.8971 14.9931 74.7106 14.9931C74.5241 14.9931 74.3722 14.9364 74.2561 14.8231C74.1399 14.7099 74.0807 14.5523 74.0807 14.3503V10.0459C74.0807 9.86978 74.1412 9.72449 74.2635 9.60875C74.3857 9.49302 74.529 9.43515 74.6945 9.43515H76.2891ZM70.8606 9.31079C71.0829 9.31079 71.267 9.37974 71.4115 9.51641C71.556 9.65308 71.6758 9.84516 71.7685 10.0926L73.1209 13.7089C73.1679 13.8332 73.2099 13.9588 73.2494 14.0881C73.2877 14.2174 73.3075 14.3467 73.3075 14.4747C73.3075 14.6348 73.2519 14.7616 73.1407 14.8539C73.0295 14.9463 72.8826 14.9931 72.7022 14.9931C72.5108 14.9931 72.3687 14.9389 72.2749 14.8305C72.1822 14.7222 72.1044 14.5695 72.0414 14.3737L71.8858 13.8862H69.8194L69.6712 14.3503C69.5933 14.5978 69.5044 14.7677 69.4031 14.8576C69.3019 14.9475 69.1684 14.9931 69.0029 14.9931C68.8214 14.9931 68.6756 14.9463 68.5645 14.8539C68.4533 14.7616 68.3977 14.6348 68.3977 14.4747C68.3977 14.3503 68.4175 14.2223 68.4558 14.0881C68.4941 13.9539 68.5373 13.8271 68.5842 13.7089L69.9355 10.0926C70.0281 9.84516 70.1479 9.65308 70.2924 9.51641C70.4382 9.37974 70.6272 9.31079 70.8606 9.31079ZM70.1924 12.7251H71.5128L70.8841 10.7046H70.868L70.1924 12.7251ZM67.0008 9.43515C67.1712 9.43515 67.3182 9.49302 67.4392 9.60875C67.5615 9.72449 67.622 9.87102 67.622 10.0459V14.3503C67.622 14.5523 67.564 14.7086 67.4479 14.8231C67.3318 14.9364 67.1799 14.9931 66.9933 14.9931C66.8068 14.9931 66.6549 14.9364 66.5388 14.8231C66.4227 14.7099 66.3647 14.5523 66.3647 14.3503V10.595H64.0969V14.3503C64.0969 14.5523 64.0389 14.7086 63.9215 14.8231C63.8054 14.9364 63.6535 14.9931 63.467 14.9931C63.2805 14.9931 63.1285 14.9364 63.0124 14.8231C62.8963 14.7099 62.837 14.5523 62.837 14.3503V10.0372C62.837 9.86732 62.8963 9.72326 63.0161 9.60752C63.1347 9.49178 63.2854 9.43392 63.467 9.43392H67.0008V9.43515ZM57.805 12.1907C57.805 12.4493 57.8359 12.682 57.8977 12.8913C57.9594 13.1006 58.0508 13.2816 58.1694 13.4331C58.288 13.5857 58.4325 13.7027 58.6005 13.7852C58.7685 13.8677 58.9587 13.9096 59.1711 13.9096C59.3885 13.9096 59.5824 13.8665 59.7541 13.7815C59.9246 13.6965 60.0691 13.5771 60.1852 13.4257C60.3013 13.273 60.3902 13.092 60.4495 12.8802C60.5088 12.6684 60.5384 12.4394 60.5384 12.1907C60.5384 11.942 60.5088 11.7142 60.4495 11.5049C60.3902 11.2956 60.3025 11.1134 60.1852 10.9594C60.0691 10.8043 59.9246 10.6849 59.7541 10.5999C59.5837 10.515 59.386 10.4719 59.1637 10.4719C58.9513 10.4719 58.7623 10.5137 58.5968 10.5962C58.4313 10.6787 58.2892 10.7957 58.1694 10.9484C58.0508 11.101 57.9594 11.282 57.8977 11.4938C57.8359 11.7056 57.805 11.9383 57.805 12.1907ZM59.1723 9.31079C59.5812 9.31079 59.953 9.37974 60.2865 9.51641C60.6199 9.65308 60.9065 9.84639 61.1449 10.0976C61.3833 10.3475 61.5673 10.6504 61.6958 11.0038C61.8255 11.3571 61.8897 11.7536 61.8897 12.1919C61.8897 12.6204 61.8267 13.012 61.6995 13.3653C61.5723 13.7187 61.3919 14.0216 61.156 14.2752C60.9201 14.5276 60.636 14.7246 60.3013 14.8638C59.9678 15.0029 59.5911 15.0731 59.1711 15.0731C58.7623 15.0731 58.3905 15.0041 58.057 14.8675C57.7235 14.7308 57.437 14.5363 57.1986 14.2826C56.9602 14.0302 56.7761 13.7261 56.6477 13.3727C56.518 13.0194 56.4538 12.6253 56.4538 12.1919C56.4538 11.7536 56.518 11.3559 56.6477 11.0001C56.7774 10.6442 56.9614 10.3401 57.1986 10.0902C57.437 9.84023 57.7223 9.64816 58.057 9.51395C58.3917 9.37851 58.7623 9.31079 59.1723 9.31079ZM54.1082 9.31079C54.3565 9.31079 54.5837 9.33049 54.7875 9.36866C54.9926 9.40683 55.168 9.4647 55.3162 9.53857C55.4632 9.61368 55.578 9.70479 55.6583 9.81314C55.7386 9.9215 55.7781 10.0459 55.7781 10.185C55.7781 10.345 55.7263 10.4842 55.6225 10.6036C55.5188 10.7218 55.3891 10.7821 55.2347 10.7821C55.1729 10.7821 55.1 10.7674 55.0173 10.7391C54.9345 10.7107 54.8468 10.6812 54.753 10.6504C54.6603 10.6196 54.5615 10.5901 54.4578 10.5617C54.354 10.5334 54.2478 10.5187 54.1391 10.5187C53.9118 10.5187 53.7093 10.5605 53.5339 10.643C53.3572 10.7255 53.2103 10.84 53.0917 10.9878C52.9731 11.1343 52.8805 11.3104 52.8162 11.5147C52.752 11.7191 52.7187 11.9445 52.7187 12.1919C52.7187 12.4296 52.7495 12.6475 52.8113 12.8457C52.8731 13.044 52.962 13.2164 53.0756 13.3604C53.1893 13.5045 53.3276 13.6177 53.4906 13.6978C53.6537 13.7778 53.8365 13.8172 54.0378 13.8172C54.2194 13.8172 54.3701 13.8049 54.4923 13.779C54.6146 13.7532 54.7196 13.7236 54.811 13.6904C54.9012 13.6571 54.9802 13.6276 55.0482 13.6017C55.1149 13.5759 55.1877 13.5636 55.2656 13.5636C55.4471 13.5636 55.5855 13.6177 55.6806 13.7261C55.7769 13.8344 55.8238 13.9736 55.8238 14.1447C55.8238 14.2949 55.7769 14.4279 55.6843 14.5437C55.5916 14.6594 55.4644 14.7567 55.3038 14.8342C55.1433 14.9118 54.958 14.9709 54.748 15.0128C54.538 15.0546 54.317 15.0743 54.0835 15.0743C53.6636 15.0743 53.2856 15.0017 52.9496 14.8576C52.6124 14.7136 52.3284 14.5129 52.0949 14.258C51.8615 14.0031 51.6824 13.7002 51.5552 13.3518C51.4279 13.0033 51.3649 12.6278 51.3649 12.2252C51.3649 11.7967 51.4292 11.4039 51.5589 11.0481C51.6885 10.6923 51.8726 10.3844 52.1097 10.1271C52.3481 9.86855 52.6371 9.66909 52.9756 9.52749C53.3165 9.3822 53.6932 9.31079 54.1082 9.31079ZM47.0481 9.38836C47.2346 9.38836 47.3865 9.445 47.5026 9.55827C47.6187 9.67155 47.678 9.82915 47.678 10.0311V11.5874L49.3949 9.72942C49.5134 9.60014 49.6147 9.51148 49.6975 9.46223C49.7802 9.41298 49.8815 9.38836 50.0001 9.38836C50.073 9.38836 50.1458 9.4056 50.2212 9.43884C50.2965 9.47208 50.3632 9.51764 50.4225 9.57428C50.4818 9.63092 50.5312 9.69617 50.5695 9.76759C50.6078 9.84023 50.6276 9.91534 50.6276 9.99168C50.6276 10.084 50.6004 10.1776 50.546 10.2699C50.4917 10.3623 50.4361 10.4374 50.3793 10.494L48.8798 11.9962L50.6658 13.9317C50.8005 14.0758 50.8672 14.2235 50.8672 14.3725C50.8672 14.5535 50.8054 14.7013 50.6807 14.8182C50.5559 14.934 50.399 14.9931 50.2064 14.9931C50.1644 14.9931 50.1211 14.9894 50.0742 14.982C50.0273 14.9746 49.9754 14.9537 49.9186 14.9204C49.8618 14.8872 49.7926 14.8342 49.7123 14.7616C49.632 14.6889 49.5369 14.5917 49.4282 14.4673L47.6768 12.501V14.3516C47.6768 14.5535 47.6187 14.7099 47.5014 14.8244C47.3853 14.9377 47.2333 14.9943 47.0468 14.9943C46.8603 14.9943 46.7084 14.9377 46.5923 14.8244C46.4762 14.7111 46.4169 14.5535 46.4169 14.3516V10.0311C46.4169 9.83038 46.475 9.67278 46.5923 9.55827C46.7109 9.445 46.8616 9.38836 47.0481 9.38836ZM43.1956 9.31079C43.418 9.31079 43.602 9.37974 43.7465 9.51641C43.891 9.65308 44.0108 9.84516 44.1035 10.0926L45.4547 13.7089C45.5017 13.8332 45.5437 13.9588 45.5832 14.0881C45.6215 14.2174 45.6412 14.3467 45.6412 14.4747C45.6412 14.6348 45.5857 14.7616 45.4745 14.8539C45.3633 14.9463 45.2163 14.9931 45.036 14.9931C44.8446 14.9931 44.7025 14.9389 44.6086 14.8305C44.516 14.7222 44.4382 14.5695 44.3752 14.3737L44.2196 13.8862H42.1556L42.0086 14.3503C41.9308 14.5978 41.8419 14.7677 41.7406 14.8576C41.6393 14.9475 41.5059 14.9931 41.3404 14.9931C41.1589 14.9931 41.0131 14.9463 40.9019 14.8539C40.7908 14.7616 40.7352 14.6348 40.7352 14.4747C40.7352 14.3503 40.755 14.2223 40.7932 14.0881C40.8315 13.9539 40.8748 13.8271 40.9217 13.7089L42.273 10.0926C42.3656 9.84516 42.4854 9.65308 42.6299 9.51641C42.7744 9.37974 42.9634 9.31079 43.1956 9.31079ZM42.5286 12.7251H43.849L43.2203 10.7046H43.2043L42.5286 12.7251ZM39.7866 9.43515C39.978 9.43515 40.1312 9.48686 40.2448 9.59029C40.3585 9.69371 40.4153 9.83531 40.4153 10.0163C40.4153 10.1973 40.3585 10.3389 40.2448 10.4423C40.1312 10.5457 39.978 10.5975 39.7866 10.5975H39.0566V14.3528C39.0566 14.5547 38.9986 14.7111 38.8812 14.8256C38.7651 14.9389 38.6132 14.9955 38.4267 14.9955C38.2402 14.9955 38.0883 14.9389 37.9722 14.8256C37.8561 14.7123 37.798 14.5547 37.798 14.3528V10.5975H37.068C36.8766 10.5975 36.7234 10.5457 36.6098 10.4423C36.4961 10.3389 36.4393 10.1973 36.4393 10.0163C36.4393 9.83531 36.4961 9.69371 36.6098 9.59029C36.7234 9.48686 36.8766 9.43515 37.068 9.43515H39.7866ZM91.19 10.6504H90.7614C90.5601 10.6504 90.4045 10.5876 90.2945 10.462C90.1858 10.3364 90.1303 10.1899 90.1303 10.0225C90.1303 9.84885 90.1846 9.69987 90.2945 9.57428C90.4045 9.44869 90.5589 9.3859 90.7614 9.3859H91.8706C92.0608 9.3859 92.2127 9.42653 92.3251 9.51148C92.477 9.62722 92.5524 9.81561 92.5524 10.0729V14.3159C92.5524 14.551 92.4894 14.7308 92.3634 14.8564C92.2374 14.982 92.0732 15.0448 91.8718 15.0448C91.6643 15.0448 91.4988 14.9832 91.3753 14.8601C91.2518 14.737 91.19 14.556 91.19 14.3159V10.6504ZM39.4963 27.8733C39.4963 28.0149 39.4531 28.1319 39.3654 28.2267C39.279 28.3215 39.1641 28.3695 39.022 28.3695C38.9208 28.3695 38.8306 28.3387 38.7515 28.2784C38.6725 28.218 38.6144 28.1479 38.5786 28.0666C38.3798 28.3092 38.1093 28.4298 37.7659 28.4298C37.3571 28.4298 37.0112 28.2624 36.7284 27.9275C36.4455 27.5926 36.3035 27.185 36.3035 26.7048C36.3035 26.2246 36.4443 25.8183 36.7259 25.4859C37.0075 25.1534 37.3546 24.9872 37.7671 24.9872C37.9536 24.9872 38.108 25.0131 38.2315 25.066C38.3551 25.119 38.4712 25.2138 38.5811 25.3504C38.6218 25.2655 38.6737 25.1978 38.7392 25.1448C38.8207 25.0808 38.9146 25.0475 39.0245 25.0475C39.1616 25.0475 39.2752 25.0943 39.3642 25.1867C39.4531 25.279 39.4976 25.396 39.4976 25.5376V27.8733H39.4963Z" fill="#FEFEFE"/>
<path d="M89.4845 19.3996C89.5352 19.3061 89.5722 19.2445 89.5957 19.2137C89.6389 19.1571 89.6871 19.1288 89.7402 19.1288C89.8625 19.1288 89.923 19.1879 89.923 19.3048C89.923 19.3393 89.9107 19.3849 89.8872 19.4415C89.8736 19.4723 89.8452 19.5314 89.7983 19.6176L88.9176 21.3093C88.8583 21.4226 88.8114 21.4965 88.7768 21.5297C88.7422 21.563 88.7039 21.5802 88.6619 21.5802C88.5396 21.5802 88.4791 21.5211 88.4791 21.4041C88.4791 21.3623 88.4977 21.3032 88.5347 21.2244C88.5656 21.1653 88.5878 21.1209 88.6039 21.0902L89.4845 19.3996ZM87.3144 21.068C87.4651 21.068 87.5775 20.9867 87.6516 20.823C87.7109 20.6949 87.7405 20.5373 87.7405 20.3526C87.7405 20.1716 87.7109 20.0177 87.6516 19.8884C87.575 19.7234 87.4626 19.6397 87.3144 19.6397C87.1637 19.6397 87.0513 19.721 86.9772 19.8847C86.9179 20.0128 86.8882 20.1692 86.8882 20.3514C86.8882 20.5336 86.9179 20.69 86.9772 20.818C87.0538 20.9855 87.1662 21.068 87.3144 21.068ZM87.3144 19.1275C87.6306 19.1275 87.8776 19.2543 88.0542 19.5092C88.2111 19.7333 88.2901 20.014 88.2901 20.3514C88.2901 20.6888 88.2111 20.9707 88.0542 21.1973C87.8776 21.4521 87.6306 21.579 87.3144 21.579C86.9982 21.579 86.7511 21.4521 86.5745 21.1973C86.4177 20.9707 86.3386 20.6888 86.3386 20.3514C86.3386 20.0165 86.4177 19.7358 86.5745 19.5092C86.7511 19.2556 86.9982 19.1275 87.3144 19.1275ZM85.0133 19.9635C85.0936 19.9414 85.1763 19.9303 85.2591 19.9303C85.4777 19.9303 85.6494 20.0079 85.7729 20.1618C85.889 20.3058 85.9471 20.4893 85.9471 20.7134C85.9471 20.9572 85.8643 21.1628 85.7 21.329C85.5358 21.4952 85.3295 21.579 85.0825 21.579C84.8972 21.579 84.728 21.5383 84.5748 21.4583C84.4068 21.3709 84.3228 21.2662 84.3228 21.1419C84.3228 21.0631 84.3451 20.999 84.3883 20.9498C84.4315 20.8993 84.4859 20.8747 84.5489 20.8747C84.6032 20.8747 84.6637 20.8944 84.7292 20.9338C84.8774 21.0237 84.9898 21.068 85.0664 21.068C85.1627 21.068 85.2381 21.0347 85.2937 20.9683C85.3492 20.9018 85.3777 20.8057 85.3777 20.6789C85.3777 20.594 85.3554 20.5225 85.3122 20.4634C85.2616 20.3982 85.1961 20.3649 85.1158 20.3649C85.0417 20.3649 84.9701 20.3846 84.8996 20.4253C84.8292 20.4659 84.7687 20.4856 84.7156 20.4856C84.6501 20.4856 84.5983 20.4684 84.56 20.4351C84.5217 20.4019 84.5032 20.3526 84.5032 20.2898C84.5032 20.2554 84.5032 20.2233 84.5032 20.1938C84.5032 20.1642 84.5081 20.1138 84.5192 20.0423L84.6007 19.4021C84.6119 19.311 84.644 19.2482 84.6996 19.2162C84.7391 19.1928 84.7996 19.1805 84.8836 19.1805H85.6827C85.7618 19.1805 85.8223 19.2051 85.8643 19.2543C85.9063 19.3036 85.9285 19.3615 85.9285 19.4292C85.9285 19.4969 85.9088 19.5523 85.8692 19.5954C85.8235 19.6471 85.7606 19.6742 85.6827 19.6742H85.0503L85.0133 19.9635ZM81.0521 19.6927L80.9113 20.6137C80.9002 20.6728 80.8854 20.7417 80.8669 20.823C80.8483 20.903 80.8249 20.9756 80.7965 21.0384H81.645V19.6927H81.0521ZM81.9007 19.2026C81.981 19.2026 82.0477 19.2273 82.0983 19.2765C82.1502 19.3258 82.1749 19.3873 82.1749 19.4612V21.0384H82.2922C82.375 21.0384 82.4392 21.0606 82.4849 21.1049C82.5306 21.1493 82.5541 21.2059 82.5541 21.2736V21.8412C82.5541 21.9151 82.5331 21.9767 82.4899 22.0247C82.4479 22.0727 82.3861 22.0961 82.3083 22.0961C82.2342 22.0961 82.1749 22.0727 82.1292 22.0259C82.0847 21.9791 82.0625 21.9176 82.0625 21.8412V21.5273H80.421V21.8375C80.421 21.9139 80.4 21.9754 80.3568 22.0234C80.3148 22.0715 80.253 22.0949 80.1752 22.0949C80.1011 22.0949 80.0418 22.0715 79.9961 22.0247C79.9516 21.9779 79.9294 21.9163 79.9294 21.84V21.2724C79.9294 21.2096 79.9529 21.1542 79.9986 21.1074C80.0443 21.0606 80.1147 21.0372 80.2085 21.0372H80.2345C80.2654 20.9867 80.2925 20.9239 80.3185 20.8464C80.3444 20.7688 80.3654 20.6715 80.3827 20.5546L80.547 19.4834C80.5643 19.3787 80.5976 19.3061 80.6458 19.2642C80.6939 19.2223 80.7532 19.2026 80.8224 19.2026H81.9007ZM78.0137 20.3662C78.0137 20.4745 78.0272 20.573 78.0532 20.6617C78.0791 20.7503 78.1174 20.8254 78.1681 20.8907C78.2187 20.9547 78.2792 21.004 78.3496 21.0397C78.42 21.0741 78.5003 21.0914 78.5905 21.0914C78.6819 21.0914 78.7646 21.0729 78.8363 21.0372C78.9079 21.0015 78.9684 20.951 79.0178 20.887C79.0672 20.823 79.1043 20.7466 79.129 20.6567C79.1537 20.5681 79.1661 20.4708 79.1661 20.3662C79.1661 20.2615 79.1537 20.1655 79.129 20.0768C79.1043 19.9882 79.0672 19.9118 79.0178 19.8466C78.9684 19.7813 78.9079 19.7308 78.8363 19.6951C78.7646 19.6594 78.6806 19.641 78.5868 19.641C78.4978 19.641 78.4176 19.6582 78.3472 19.6927C78.2767 19.7271 78.2175 19.7776 78.1668 19.8417C78.1162 19.9057 78.0779 19.982 78.0519 20.0719C78.0272 20.1605 78.0137 20.259 78.0137 20.3662ZM78.5905 19.1509C78.7634 19.1509 78.9203 19.1792 79.0611 19.2371C79.2019 19.295 79.3229 19.3762 79.423 19.4821C79.523 19.588 79.6008 19.7148 79.6552 19.8638C79.7095 20.0128 79.7367 20.1803 79.7367 20.3649C79.7367 20.5459 79.7095 20.7109 79.6564 20.8599C79.6033 21.0089 79.5267 21.1369 79.4267 21.2441C79.3279 21.3512 79.2068 21.4337 79.066 21.4928C78.9252 21.5519 78.7659 21.5814 78.5892 21.5814C78.4163 21.5814 78.2595 21.5531 78.1187 21.4952C77.9778 21.4374 77.8568 21.3549 77.7568 21.249C77.6567 21.1419 77.5789 21.0138 77.5245 20.8648C77.4702 20.7158 77.443 20.5496 77.443 20.3674C77.443 20.1827 77.4702 20.0153 77.5245 19.865C77.5789 19.7148 77.6567 19.5868 77.7568 19.4809C77.8568 19.375 77.9778 19.2937 78.1187 19.2371C78.2607 19.1792 78.4176 19.1509 78.5905 19.1509ZM75.6743 19.1842C75.762 19.1842 75.8386 19.2297 75.904 19.3208L76.2807 19.8367L76.6315 19.3504C76.6686 19.2987 76.7069 19.2568 76.7476 19.2285C76.7884 19.1989 76.8353 19.1842 76.8897 19.1842C76.9724 19.1842 77.0391 19.2088 77.0898 19.258C77.1404 19.3073 77.1651 19.3639 77.1651 19.4292C77.1651 19.4797 77.1552 19.5228 77.1342 19.5609C77.1132 19.5991 77.091 19.6336 77.0675 19.6644L76.6019 20.2787L77.1552 21.0163C77.1836 21.0557 77.212 21.0951 77.2405 21.1357C77.2689 21.1763 77.2825 21.2268 77.2825 21.2872C77.2825 21.366 77.2578 21.4287 77.2071 21.4768C77.1565 21.5248 77.0959 21.5482 77.0231 21.5482C76.9687 21.5482 76.9218 21.5359 76.8835 21.5125C76.8452 21.4891 76.8081 21.4509 76.7699 21.398L76.2783 20.7319L75.8003 21.382C75.757 21.4423 75.715 21.4854 75.6755 21.5112C75.636 21.5359 75.5891 21.5482 75.5347 21.5482C75.4606 21.5482 75.3988 21.5236 75.3494 21.4731C75.3 21.4226 75.2753 21.361 75.2753 21.2872C75.2753 21.2564 75.279 21.2281 75.2852 21.2022C75.2914 21.1763 75.3037 21.1517 75.321 21.1308L75.9571 20.2787L75.4915 19.6644C75.468 19.6336 75.4445 19.5991 75.4248 19.5597C75.4038 19.5203 75.3939 19.4772 75.3939 19.4292C75.3939 19.3615 75.4198 19.3036 75.4705 19.2556C75.5236 19.2076 75.5903 19.1842 75.6743 19.1842ZM73.393 20.3662C73.393 20.4745 73.4065 20.573 73.4325 20.6617C73.4584 20.7503 73.4967 20.8254 73.5473 20.8907C73.598 20.9547 73.6585 21.004 73.7289 21.0397C73.7993 21.0741 73.8796 21.0914 73.9698 21.0914C74.0612 21.0914 74.1439 21.0729 74.2156 21.0372C74.2872 21.0015 74.3477 20.951 74.3971 20.887C74.4465 20.823 74.4836 20.7466 74.5083 20.6567C74.533 20.5681 74.5454 20.4708 74.5454 20.3662C74.5454 20.2615 74.533 20.1655 74.5083 20.0768C74.4836 19.9882 74.4465 19.9118 74.3971 19.8466C74.3477 19.7813 74.2872 19.7308 74.2156 19.6951C74.1439 19.6594 74.0599 19.641 73.9661 19.641C73.8771 19.641 73.7968 19.6582 73.7264 19.6927C73.656 19.7271 73.5968 19.7776 73.5461 19.8417C73.4955 19.9057 73.4572 19.982 73.4312 20.0719C73.4053 20.1605 73.393 20.259 73.393 20.3662ZM73.9685 19.1509C74.1415 19.1509 74.2983 19.1792 74.4391 19.2371C74.5799 19.295 74.701 19.3762 74.801 19.4821C74.9011 19.588 74.9789 19.7148 75.0332 19.8638C75.0876 20.0128 75.1148 20.1803 75.1148 20.3649C75.1148 20.5459 75.0876 20.7109 75.0345 20.8599C74.9814 21.0089 74.9048 21.1369 74.8047 21.2441C74.7059 21.3512 74.5849 21.4337 74.4441 21.4928C74.3033 21.5519 74.1439 21.5814 73.9673 21.5814C73.7944 21.5814 73.6375 21.5531 73.4967 21.4952C73.3559 21.4374 73.2348 21.3549 73.1348 21.249C73.0348 21.1419 72.9569 21.0138 72.9026 20.8648C72.8482 20.7158 72.8211 20.5496 72.8211 20.3674C72.8211 20.1827 72.8482 20.0153 72.9026 19.865C72.9569 19.7148 73.0348 19.5868 73.1348 19.4809C73.2348 19.375 73.3559 19.2937 73.4967 19.2371C73.64 19.1792 73.7968 19.1509 73.9685 19.1509ZM71.1042 19.6927L70.9634 20.6137C70.9523 20.6728 70.9375 20.7417 70.9189 20.823C70.9004 20.903 70.8769 20.9756 70.8485 21.0384H71.6971V19.6927H71.1042ZM71.9528 19.2026C72.033 19.2026 72.0997 19.2273 72.1504 19.2765C72.2023 19.3258 72.227 19.3873 72.227 19.4612V21.0384H72.3443C72.4271 21.0384 72.4913 21.0606 72.537 21.1049C72.5827 21.1493 72.6062 21.2059 72.6062 21.2736V21.8412C72.6062 21.9151 72.5852 21.9767 72.5419 22.0247C72.4999 22.0727 72.4382 22.0961 72.3604 22.0961C72.2863 22.0961 72.227 22.0727 72.1813 22.0259C72.1368 21.9791 72.1146 21.9176 72.1146 21.8412V21.5273H70.473V21.8375C70.473 21.9139 70.452 21.9754 70.4088 22.0234C70.3656 22.0715 70.3051 22.0949 70.2272 22.0949C70.1531 22.0949 70.0939 22.0715 70.0482 22.0247C70.0037 21.9779 69.9815 21.9163 69.9815 21.84V21.2724C69.9815 21.2096 70.0049 21.1542 70.0506 21.1074C70.0963 21.0606 70.1667 21.0372 70.2606 21.0372H70.2865C70.3174 20.9867 70.3446 20.9239 70.3705 20.8464C70.3952 20.7688 70.4175 20.6715 70.4348 20.5546L70.599 19.4834C70.6163 19.3787 70.6497 19.3061 70.6978 19.2642C70.746 19.2223 70.8053 19.2026 70.8745 19.2026H71.9528ZM67.3296 19.1054C67.2468 19.1054 67.169 19.0918 67.0949 19.066C67.022 19.0401 66.9578 19.0044 66.9047 18.9601C66.8516 18.9157 66.8083 18.8628 66.7775 18.8012C66.7454 18.7397 66.7305 18.6744 66.7305 18.6018C66.7305 18.5402 66.7453 18.491 66.7762 18.4516C66.8071 18.4122 66.854 18.3925 66.917 18.3925C66.9603 18.3925 66.9973 18.4072 67.0257 18.438C67.0541 18.4688 67.0801 18.5131 67.1048 18.5722C67.1282 18.6289 67.1567 18.6732 67.1888 18.704C67.2209 18.736 67.2678 18.7508 67.3308 18.7508C67.3938 18.7508 67.442 18.7347 67.4729 18.704C67.505 18.672 67.5321 18.6289 67.5568 18.5722C67.5803 18.5131 67.6075 18.4688 67.6359 18.438C67.6643 18.4072 67.7001 18.3925 67.7446 18.3925C67.8076 18.3925 67.8545 18.4122 67.8854 18.4516C67.9163 18.491 67.9311 18.5402 67.9311 18.6018C67.9311 18.6732 67.915 18.7397 67.8842 18.8012C67.852 18.8616 67.8101 18.9145 67.7569 18.9601C67.7038 19.0044 67.6396 19.0401 67.5667 19.066C67.4902 19.0918 67.4123 19.1054 67.3296 19.1054ZM66.5564 19.1842C66.6354 19.1842 66.6984 19.2076 66.7478 19.2556C66.7972 19.3036 66.8219 19.3701 66.8219 19.455V20.5681H66.8281L67.8076 19.3467C67.8508 19.2925 67.8916 19.2519 67.9299 19.2248C67.9681 19.1977 68.0163 19.1842 68.0756 19.1842C68.1547 19.1842 68.2177 19.2076 68.2671 19.2556C68.3165 19.3036 68.3412 19.3701 68.3412 19.455V21.2773C68.3412 21.3623 68.3165 21.4287 68.2671 21.4768C68.2177 21.5248 68.1547 21.5482 68.0756 21.5482C67.9966 21.5482 67.9336 21.5248 67.8842 21.4768C67.8348 21.4287 67.8101 21.3623 67.8101 21.2773V20.1642H67.8039L66.854 21.3499C66.7972 21.4214 66.7478 21.4731 66.7046 21.5039C66.6626 21.5346 66.612 21.5494 66.5551 21.5494C66.4761 21.5494 66.4131 21.526 66.3637 21.4792C66.3143 21.4324 66.2896 21.3635 66.2896 21.2724V19.4563C66.2896 19.3713 66.3143 19.3048 66.3637 19.2568C66.4143 19.2076 66.4773 19.1842 66.5564 19.1842ZM65.7683 19.2026C65.8424 19.2026 65.9042 19.2248 65.9524 19.2691C66.0006 19.3134 66.024 19.3725 66.024 19.4476C66.024 19.5264 66.0006 19.5868 65.9524 19.6286C65.9042 19.6705 65.8437 19.6927 65.7683 19.6927H65.2113V20.1138H65.7226C65.7967 20.1138 65.8585 20.1359 65.9067 20.179C65.9549 20.2221 65.9783 20.2824 65.9783 20.3588C65.9783 20.4351 65.9548 20.4955 65.9079 20.5385C65.861 20.5816 65.7992 20.6038 65.7226 20.6038H65.2113V21.0384H65.7844C65.861 21.0384 65.9227 21.0594 65.9709 21.1025C66.0191 21.1443 66.0425 21.2059 66.0425 21.2835C66.0425 21.3573 66.0191 21.4164 65.9709 21.462C65.9227 21.5063 65.8622 21.5285 65.7869 21.5285H64.9383C64.8679 21.5285 64.8074 21.5039 64.7568 21.4546C64.7049 21.4054 64.6802 21.3438 64.6802 21.2699V19.4612C64.6802 19.3873 64.7061 19.3258 64.7568 19.2765C64.8086 19.2273 64.8692 19.2026 64.9383 19.2026H65.7683ZM64.0614 19.2026C64.1404 19.2026 64.2046 19.2273 64.2565 19.2765C64.3084 19.3258 64.3331 19.3873 64.3331 19.4612V21.2773C64.3331 21.3623 64.3084 21.4287 64.259 21.4768C64.2096 21.5248 64.1466 21.5482 64.0675 21.5482C63.9885 21.5482 63.9255 21.5248 63.8761 21.4768C63.8267 21.4287 63.802 21.3623 63.802 21.2773V19.6939H63.1795L63.0387 20.7971C63.0078 21.0274 62.9349 21.2108 62.8213 21.3463C62.7064 21.4817 62.5619 21.5482 62.3877 21.5482C62.3087 21.5482 62.2469 21.5236 62.2 21.4743C62.153 21.4251 62.1296 21.3598 62.1296 21.2773C62.1296 21.1788 62.174 21.1111 62.2642 21.0717C62.3519 21.0347 62.4149 20.9806 62.4544 20.9104C62.4939 20.8402 62.5211 20.7442 62.5359 20.6247L62.6805 19.4747C62.694 19.3701 62.7262 19.2987 62.7768 19.2605C62.8287 19.2223 62.8818 19.2039 62.9386 19.2039H64.0614V19.2026ZM61.7504 19.2026C61.8245 19.2026 61.8863 19.2248 61.9332 19.2691C61.9814 19.3134 62.0048 19.3725 62.0048 19.4476C62.0048 19.5264 61.9814 19.5868 61.9332 19.6286C61.885 19.6705 61.8245 19.6927 61.7504 19.6927H61.1933V20.1138H61.7047C61.7788 20.1138 61.8406 20.1359 61.8887 20.179C61.9369 20.2221 61.9604 20.2824 61.9604 20.3588C61.9604 20.4351 61.9369 20.4955 61.89 20.5385C61.843 20.5816 61.7813 20.6038 61.7047 20.6038H61.1933V21.0384H61.7664C61.843 21.0384 61.9048 21.0594 61.9529 21.1025C62.0011 21.1443 62.0246 21.2059 62.0246 21.2835C62.0246 21.3573 62.0011 21.4164 61.9529 21.462C61.9048 21.5063 61.8443 21.5285 61.7689 21.5285H60.9204C60.85 21.5285 60.7894 21.5039 60.7388 21.4546C60.6869 21.4054 60.6622 21.3438 60.6622 21.2699V19.4612C60.6622 19.3873 60.6882 19.3258 60.7388 19.2765C60.7907 19.2273 60.8512 19.2026 60.9204 19.2026H61.7504ZM60.2423 19.2026C60.3225 19.2026 60.388 19.2248 60.4349 19.2679C60.4831 19.311 60.5066 19.3713 60.5066 19.4476C60.5066 19.524 60.4831 19.5843 60.4349 19.6274C60.3868 19.6705 60.3225 19.6927 60.2423 19.6927H59.9347V21.2761C59.9347 21.361 59.91 21.4275 59.8606 21.4755C59.8112 21.5236 59.747 21.5469 59.6691 21.5469C59.5901 21.5469 59.5271 21.5236 59.4777 21.4755C59.4283 21.4275 59.4036 21.361 59.4036 21.2761V19.6927H59.096C59.0158 19.6927 58.9503 19.6705 58.9034 19.6274C58.8552 19.5843 58.8317 19.524 58.8317 19.4476C58.8317 19.3713 58.8552 19.3122 58.9034 19.2679C58.9515 19.2248 59.0158 19.2026 59.096 19.2026H60.2423ZM56.8901 19.1842C56.9691 19.1842 57.0321 19.2076 57.0815 19.2556C57.1309 19.3036 57.1556 19.3701 57.1556 19.455V20.5681H57.1618L58.1413 19.3467C58.1845 19.2925 58.2265 19.2519 58.2635 19.2248C58.3018 19.1977 58.35 19.1842 58.4093 19.1842C58.4883 19.1842 58.5513 19.2076 58.6007 19.2556C58.6501 19.3036 58.6749 19.3701 58.6749 19.455V21.2773C58.6749 21.3623 58.6501 21.4287 58.6007 21.4768C58.5513 21.5248 58.4871 21.5482 58.4093 21.5482C58.3302 21.5482 58.2673 21.5248 58.2178 21.4768C58.1684 21.4287 58.1437 21.3623 58.1437 21.2773V20.1642H58.1376L57.1877 21.3499C57.1309 21.4214 57.0815 21.4731 57.0383 21.5039C56.9963 21.5346 56.9456 21.5494 56.8888 21.5494C56.8098 21.5494 56.7468 21.526 56.6974 21.4792C56.648 21.4324 56.6233 21.3635 56.6233 21.2724V19.4563C56.6233 19.3713 56.648 19.3048 56.6974 19.2568C56.7468 19.2076 56.811 19.1842 56.8901 19.1842ZM54.8471 19.6927L54.7063 20.6137C54.6952 20.6728 54.6804 20.7417 54.6618 20.823C54.6433 20.903 54.6198 20.9756 54.5914 21.0384H55.44V19.6927H54.8471ZM55.6957 19.2026C55.7759 19.2026 55.8426 19.2273 55.8933 19.2765C55.9452 19.3258 55.9699 19.3873 55.9699 19.4612V21.0384H56.0872C56.17 21.0384 56.2342 21.0606 56.2799 21.1049C56.3256 21.1493 56.3491 21.2059 56.3491 21.2736V21.8412C56.3491 21.9151 56.3281 21.9767 56.2848 22.0247C56.2416 22.0727 56.1811 22.0961 56.1033 22.0961C56.0292 22.0961 55.9699 22.0727 55.9242 22.0259C55.8797 21.9791 55.8575 21.9176 55.8575 21.8412V21.5273H54.2159V21.8375C54.2159 21.9139 54.1949 21.9754 54.1517 22.0234C54.1085 22.0715 54.048 22.0949 53.9701 22.0949C53.896 22.0949 53.8368 22.0715 53.791 22.0247C53.7466 21.9779 53.7244 21.9163 53.7244 21.84V21.2724C53.7244 21.2096 53.7478 21.1542 53.7935 21.1074C53.8392 21.0606 53.9096 21.0372 54.0035 21.0372H54.0294C54.0603 20.9867 54.0875 20.9239 54.1134 20.8464C54.1381 20.7688 54.1604 20.6715 54.1777 20.5546L54.3419 19.4834C54.3592 19.3787 54.3926 19.3061 54.4407 19.2642C54.4889 19.2223 54.5482 19.2026 54.6174 19.2026H55.6957ZM51.8099 20.3662C51.8099 20.4745 51.8234 20.573 51.8494 20.6617C51.8753 20.7503 51.9136 20.8254 51.9643 20.8907C52.0149 20.9547 52.0754 21.004 52.1458 21.0397C52.2162 21.0741 52.2965 21.0914 52.3867 21.0914C52.4781 21.0914 52.5608 21.0729 52.6325 21.0372C52.7041 21.0015 52.7646 20.951 52.814 20.887C52.8634 20.823 52.9005 20.7466 52.9252 20.6567C52.9499 20.5681 52.9623 20.4708 52.9623 20.3662C52.9623 20.2615 52.9499 20.1655 52.9252 20.0768C52.9005 19.9882 52.8634 19.9118 52.814 19.8466C52.7646 19.7813 52.7041 19.7308 52.6325 19.6951C52.5608 19.6594 52.4768 19.641 52.383 19.641C52.294 19.641 52.2138 19.6582 52.1434 19.6927C52.073 19.7271 52.0137 19.7776 51.963 19.8417C51.9124 19.9057 51.8741 19.982 51.8482 20.0719C51.8222 20.1605 51.8099 20.259 51.8099 20.3662ZM52.3867 19.1509C52.5596 19.1509 52.7165 19.1792 52.8573 19.2371C52.9981 19.295 53.1191 19.3762 53.2192 19.4821C53.3192 19.588 53.397 19.7148 53.4514 19.8638C53.5057 20.0128 53.5329 20.1803 53.5329 20.3649C53.5329 20.5459 53.5057 20.7109 53.4526 20.8599C53.3995 21.0089 53.3229 21.1369 53.2229 21.2441C53.1241 21.3512 53.003 21.4337 52.8622 21.4928C52.7214 21.5519 52.5621 21.5814 52.3854 21.5814C52.2125 21.5814 52.0557 21.5531 51.9149 21.4952C51.774 21.4374 51.653 21.3549 51.553 21.249C51.4529 21.1419 51.3751 21.0138 51.3207 20.8648C51.2664 20.7158 51.2392 20.5496 51.2392 20.3674C51.2392 20.1827 51.2664 20.0153 51.3207 19.865C51.3751 19.7148 51.4529 19.5868 51.553 19.4809C51.653 19.375 51.774 19.2937 51.9149 19.2371C52.0569 19.1792 52.2138 19.1509 52.3867 19.1509ZM50.1412 21.0581C50.235 21.0581 50.3104 21.0384 50.366 20.9978C50.4215 20.9572 50.45 20.8981 50.45 20.8193C50.45 20.7405 50.4191 20.6814 50.3586 20.6407C50.2968 20.6001 50.2239 20.5804 50.1387 20.5804H49.7953V21.0569H50.1412V21.0581ZM50.0461 20.1113C50.1115 20.1113 50.1671 20.0928 50.2116 20.0571C50.256 20.0214 50.2783 19.966 50.2783 19.8921C50.2783 19.8183 50.256 19.7628 50.2128 19.7271C50.1696 19.6914 50.1128 19.673 50.0424 19.673H49.7929V20.1101H50.0461V20.1113ZM50.1671 19.2026C50.2585 19.2026 50.3437 19.2174 50.4215 19.2445C50.4994 19.2728 50.5673 19.3134 50.6241 19.3652C50.6822 19.4169 50.7279 19.4809 50.76 19.556C50.7933 19.6311 50.8094 19.7148 50.8094 19.8096C50.8094 19.9008 50.7847 19.9845 50.7353 20.0608C50.6859 20.1372 50.6179 20.2012 50.5302 20.2529C50.6748 20.2837 50.7884 20.3502 50.8724 20.4524C50.9564 20.5546 50.9984 20.6789 50.9984 20.8242C50.9984 20.9313 50.9798 21.0274 50.9428 21.1148C50.9057 21.2022 50.8526 21.2761 50.7822 21.3364C50.7118 21.3967 50.6278 21.4448 50.5302 21.4768C50.4314 21.51 50.3227 21.526 50.2029 21.526H49.5211C49.4507 21.526 49.3902 21.5014 49.3396 21.4521C49.2877 21.4029 49.263 21.3413 49.263 21.2675V19.4587C49.263 19.3849 49.2889 19.3233 49.3396 19.274C49.3914 19.2248 49.452 19.2002 49.5211 19.2002H50.1671V19.2026ZM46.7223 20.3095C46.8223 20.3095 46.9051 20.2787 46.9693 20.216C47.0335 20.1544 47.0656 20.0793 47.0656 19.9919C47.0656 19.8872 47.0335 19.8084 46.9705 19.753C46.9075 19.6988 46.8248 19.6717 46.7247 19.6717H46.4295V20.3083H46.7223V20.3095ZM46.831 19.2026C46.9273 19.2026 47.0224 19.2199 47.1163 19.2531C47.2101 19.2864 47.2941 19.3356 47.3682 19.3996C47.4424 19.4637 47.5029 19.5437 47.5486 19.6397C47.5943 19.7358 47.6177 19.8453 47.6177 19.9697C47.6177 20.0978 47.5992 20.2123 47.5634 20.312C47.5276 20.4117 47.4757 20.4967 47.4078 20.5656C47.3398 20.6346 47.2596 20.6875 47.1657 20.7245C47.0718 20.7614 46.9656 20.7799 46.8482 20.7799H46.432V21.2761C46.432 21.361 46.4073 21.4275 46.3579 21.4755C46.3085 21.5236 46.2443 21.5469 46.1664 21.5469C46.0874 21.5469 46.0244 21.5236 45.975 21.4755C45.9256 21.4275 45.9009 21.361 45.9009 21.2761V19.46C45.9009 19.3861 45.9268 19.3245 45.9775 19.2753C46.0293 19.226 46.0899 19.2014 46.159 19.2014H46.831V19.2026ZM43.8876 20.3662C43.8876 20.4745 43.9012 20.573 43.9271 20.6617C43.953 20.7503 43.9913 20.8254 44.042 20.8907C44.0926 20.9547 44.1531 21.004 44.2235 21.0397C44.2939 21.0741 44.3742 21.0914 44.4644 21.0914C44.5558 21.0914 44.6386 21.0729 44.7102 21.0372C44.7818 21.0015 44.8424 20.951 44.8918 20.887C44.9412 20.823 44.9782 20.7466 45.0029 20.6567C45.0276 20.5681 45.0412 20.4708 45.0412 20.3662C45.0412 20.2615 45.0289 20.1655 45.0029 20.0768C44.9782 19.9882 44.9412 19.9118 44.8918 19.8466C44.8424 19.7813 44.7818 19.7308 44.7102 19.6951C44.6386 19.6594 44.5546 19.641 44.4607 19.641C44.3718 19.641 44.2915 19.6582 44.2211 19.6927C44.1507 19.7271 44.0914 19.7776 44.0407 19.8417C43.9901 19.9057 43.9518 19.982 43.9259 20.0719C43.9012 20.1605 43.8876 20.259 43.8876 20.3662ZM44.4644 19.1509C44.6373 19.1509 44.7942 19.1792 44.935 19.2371C45.0758 19.295 45.1968 19.3762 45.2969 19.4821C45.3969 19.588 45.4748 19.7148 45.5291 19.8638C45.5834 20.0128 45.6106 20.1803 45.6106 20.3649C45.6106 20.5459 45.5834 20.7109 45.5303 20.8599C45.4772 21.0089 45.4006 21.1369 45.3006 21.2441C45.2018 21.3512 45.0807 21.4337 44.9399 21.4928C44.7991 21.5519 44.6398 21.5814 44.4632 21.5814C44.2902 21.5814 44.1334 21.5531 43.9926 21.4952C43.8518 21.4374 43.7307 21.3549 43.6307 21.249C43.5306 21.1419 43.4528 21.0138 43.3985 20.8648C43.3441 20.7158 43.3169 20.5496 43.3169 20.3674C43.3169 20.1827 43.3441 20.0153 43.3985 19.865C43.4528 19.7148 43.5306 19.5868 43.6307 19.4809C43.7307 19.375 43.8518 19.2937 43.9926 19.2371C44.1346 19.1792 44.2915 19.1509 44.4644 19.1509ZM42.2251 21.0581C42.3165 21.0581 42.3918 21.036 42.4499 20.9917C42.5079 20.9473 42.5363 20.8845 42.5363 20.8033C42.5363 20.7122 42.5067 20.6469 42.4462 20.6075C42.3856 20.5681 42.3128 20.5484 42.2251 20.5484H41.8249V21.0581H42.2251ZM42.5005 19.2026C42.5808 19.2026 42.6463 19.2248 42.6932 19.2679C42.7414 19.311 42.7648 19.3713 42.7648 19.4476C42.7648 19.524 42.7414 19.5843 42.6932 19.6274C42.645 19.6705 42.5808 19.6927 42.5005 19.6927H41.8261V20.0584H42.3375C42.4486 20.0584 42.5499 20.0768 42.6425 20.1125C42.7339 20.1482 42.813 20.1975 42.8785 20.2615C42.9439 20.3243 42.9958 20.3994 43.0329 20.4868C43.0699 20.5743 43.0884 20.6691 43.0884 20.7737C43.0884 20.8895 43.0699 20.9929 43.0329 21.0852C42.9958 21.1776 42.9427 21.2564 42.8735 21.3216C42.8044 21.3869 42.7216 21.4374 42.6228 21.4731C42.524 21.5088 42.414 21.5273 42.2918 21.5273H41.5544C41.484 21.5273 41.4234 21.5026 41.3728 21.4534C41.3209 21.4041 41.2962 21.3426 41.2962 21.2687V19.46C41.2962 19.3861 41.3222 19.3245 41.3728 19.2753C41.4247 19.226 41.4864 19.2014 41.5606 19.2014H42.5005V19.2026ZM40.0463 19.1509C40.1401 19.1509 40.2179 19.1792 40.2785 19.2371C40.339 19.295 40.3896 19.3762 40.4292 19.4809L40.9986 21.0064C41.0183 21.0581 41.0356 21.1123 41.0529 21.1665C41.069 21.2207 41.0776 21.2748 41.0776 21.3302C41.0776 21.398 41.0541 21.4509 41.0072 21.4903C40.9603 21.5297 40.8985 21.5494 40.8219 21.5494C40.7416 21.5494 40.6811 21.526 40.6416 21.4805C40.6021 21.4349 40.57 21.3709 40.5428 21.2884L40.4773 21.0828H39.6065L39.5448 21.2785C39.5114 21.3832 39.4744 21.4546 39.4324 21.4928C39.3904 21.5309 39.3336 21.5494 39.2632 21.5494C39.1866 21.5494 39.1248 21.5297 39.0779 21.4903C39.031 21.4509 39.0075 21.398 39.0075 21.3302C39.0075 21.2785 39.0161 21.2231 39.0322 21.1665C39.0482 21.1099 39.0668 21.0569 39.0865 21.0064L39.6559 19.4809C39.6955 19.3762 39.7449 19.295 39.8066 19.2371C39.8684 19.1792 39.9474 19.1509 40.0463 19.1509ZM39.7646 20.5915H40.3217L40.0561 19.7395H40.05L39.7646 20.5915ZM37.0053 19.1842C37.0844 19.1842 37.1473 19.2076 37.1968 19.2556C37.2462 19.3036 37.2709 19.3701 37.2709 19.455V20.0916H38.2602V19.455C38.2602 19.3701 38.2849 19.3036 38.3343 19.2556C38.3837 19.2076 38.448 19.1842 38.5258 19.1842C38.6048 19.1842 38.6678 19.2076 38.7172 19.2556C38.7666 19.3036 38.7913 19.3701 38.7913 19.455V21.2773C38.7913 21.3623 38.7666 21.4287 38.7172 21.4768C38.6678 21.5248 38.6036 21.5482 38.5258 21.5482C38.4467 21.5482 38.3837 21.5248 38.3343 21.4768C38.2849 21.4287 38.2602 21.3623 38.2602 21.2773V20.5816H37.2709V21.2773C37.2709 21.3623 37.2462 21.4287 37.1968 21.4768C37.1473 21.5248 37.0831 21.5482 37.0053 21.5482C36.9263 21.5482 36.8633 21.5248 36.8139 21.4768C36.7644 21.4287 36.7397 21.3623 36.7397 21.2773V19.455C36.7397 19.3701 36.7644 19.3036 36.8139 19.2556C36.862 19.2076 36.9263 19.1842 37.0053 19.1842Z" fill="#FECC00"/>
<path d="M93.2743 21.0679C93.4249 21.0679 93.5373 20.9866 93.6115 20.8229C93.6707 20.6948 93.7004 20.5372 93.7004 20.3525C93.7004 20.1716 93.6707 20.0176 93.6115 19.8884C93.5349 19.7234 93.4225 19.6396 93.2743 19.6396C93.1236 19.6396 93.0112 19.7209 92.9371 19.8847C92.8778 20.0127 92.8481 20.1691 92.8481 20.3513C92.8481 20.5335 92.8778 20.6899 92.9371 20.818C93.0136 20.9854 93.126 21.0679 93.2743 21.0679ZM93.2743 19.1274C93.5905 19.1274 93.8375 19.2543 94.0141 19.5091C94.171 19.7332 94.25 20.014 94.25 20.3513C94.25 20.6887 94.171 20.9706 94.0141 21.1972C93.8375 21.4521 93.5905 21.5789 93.2743 21.5789C92.9581 21.5789 92.711 21.4521 92.5344 21.1972C92.3775 20.9706 92.2985 20.6887 92.2985 20.3513C92.2985 20.0164 92.3775 19.7357 92.5344 19.5091C92.711 19.2555 92.9581 19.1274 93.2743 19.1274ZM90.9732 19.9635C91.0535 19.9413 91.1362 19.9302 91.219 19.9302C91.4376 19.9302 91.6093 20.0078 91.7328 20.1617C91.8489 20.3058 91.9069 20.4892 91.9069 20.7133C91.9069 20.9571 91.8242 21.1627 91.6599 21.3289C91.4956 21.4952 91.2894 21.5789 91.0423 21.5789C90.8571 21.5789 90.6878 21.5383 90.5347 21.4582C90.3667 21.3708 90.2827 21.2661 90.2827 21.1418C90.2827 21.063 90.3049 20.999 90.3482 20.9497C90.3914 20.8992 90.4458 20.8746 90.5088 20.8746C90.5631 20.8746 90.6236 20.8943 90.6891 20.9337C90.8373 21.0236 90.9497 21.0679 91.0263 21.0679C91.1226 21.0679 91.198 21.0347 91.2535 20.9682C91.3091 20.9017 91.3375 20.8057 91.3375 20.6788C91.3375 20.5939 91.3153 20.5225 91.2721 20.4634C91.2214 20.3981 91.156 20.3649 91.0757 20.3649C91.0016 20.3649 90.9299 20.3846 90.8595 20.4252C90.7891 20.4658 90.7286 20.4855 90.6755 20.4855C90.61 20.4855 90.5582 20.4683 90.5199 20.435C90.4816 20.4018 90.4631 20.3525 90.4631 20.2898C90.4631 20.2553 90.4631 20.2233 90.4631 20.1937C90.4631 20.1642 90.468 20.1137 90.4791 20.0423L90.5606 19.402C90.5717 19.3109 90.6039 19.2481 90.6594 19.2161C90.699 19.1927 90.7595 19.1804 90.8422 19.1804H91.6414C91.7204 19.1804 91.781 19.205 91.8229 19.2543C91.8649 19.3035 91.8872 19.3614 91.8872 19.4291C91.8872 19.4968 91.8674 19.5522 91.8279 19.5953C91.7822 19.647 91.7192 19.6741 91.6414 19.6741H91.009L90.9732 19.9635Z" fill="#FECC00"/>
<path d="M35.6012 8.99043C35.4146 9.17635 35.112 9.17635 34.9255 8.99043C34.739 8.80451 34.739 8.50285 34.9255 8.31693C35.1404 8.10269 35.3998 7.92785 35.6876 7.80842C35.9655 7.69268 36.2681 7.62988 36.5831 7.62988H93.3533C93.6682 7.62988 93.9708 7.69391 94.2488 7.80842C94.5365 7.92785 94.7959 8.10146 95.0108 8.31693C95.1974 8.50285 95.1974 8.80451 95.0108 8.99043C94.8243 9.17635 94.5217 9.17635 94.3352 8.99043C94.2055 8.86115 94.0511 8.75649 93.8819 8.68631C93.7201 8.61859 93.541 8.58165 93.352 8.58165H36.5843C36.3954 8.58165 36.2163 8.61859 36.0545 8.68631C35.8852 8.75649 35.7308 8.85992 35.6012 8.99043ZM94.3377 15.3918C94.5242 15.2058 94.8268 15.2058 95.0133 15.3918C95.1998 15.5777 95.1998 15.8793 95.0133 16.0653C94.7984 16.2795 94.539 16.4543 94.2512 16.5738C93.9733 16.6895 93.6707 16.7523 93.3557 16.7523H36.5843C36.2694 16.7523 35.9668 16.6883 35.6889 16.5738C35.4011 16.4543 35.1417 16.2807 34.9268 16.0653C34.7403 15.8793 34.7403 15.5777 34.9268 15.3918C35.1133 15.2058 35.4159 15.2058 35.6024 15.3918C35.7321 15.521 35.8865 15.6257 36.0557 15.6959C36.2175 15.7636 36.3966 15.8005 36.5856 15.8005H93.3557C93.5447 15.8005 93.7238 15.7636 93.8856 15.6959C94.0536 15.6257 94.208 15.521 94.3377 15.3918Z" fill="#FECC00"/>
<path d="M31.9055 16.1134C31.9055 19.0561 30.779 22.0001 28.5261 24.2459L20.3679 32.3784L12.2097 24.2459C9.95678 22.0001 8.83032 19.0573 8.83032 16.1134C8.83032 13.1707 9.95678 10.2267 12.2097 7.98091C14.4626 5.73509 17.4146 4.61218 20.3679 4.61218C23.3212 4.61218 26.2732 5.73509 28.5261 7.98091C30.779 10.228 31.9055 13.1707 31.9055 16.1134Z" fill="#FECC00"/>
<path fill-rule="evenodd" clip-rule="evenodd" d="M11.9836 15.6249V12.282H15.3371V15.6249H18.6905V12.282H22.0452V15.6249H25.3987V12.282H28.7521V15.6249H25.3987V18.969H22.0452V15.6249H18.6905V18.969H15.3371V15.6249H11.9836Z" fill="#2B2A29"/>
<path fill-rule="evenodd" clip-rule="evenodd" d="M25.3458 24.7176C24.0711 23.4469 22.311 22.6626 20.3668 22.6626C18.4227 22.6626 16.6626 23.4481 15.3879 24.7176L20.3668 29.6808L25.3458 24.7176Z" fill="#2B2A29"/>
</g>
<defs>
<clipPath id="clip0_4615_1288">
<rect width="104" height="40" fill="white"/>
</clipPath>
</defs>
</svg>
