<svg width="129" height="40" viewBox="0 0 129 40" fill="none" xmlns="http://www.w3.org/2000/svg">
<g clip-path="url(#clip0_4615_927)">
<path d="M110.995 22.098C111.058 21.9834 111.104 21.908 111.133 21.8703C111.187 21.8009 111.246 21.7662 111.312 21.7662C111.464 21.7662 111.539 21.8386 111.539 21.9819C111.539 22.0241 111.524 22.0799 111.495 22.1493C111.478 22.187 111.442 22.2594 111.384 22.365L110.292 24.4374C110.218 24.5762 110.16 24.6667 110.117 24.7074C110.074 24.7481 110.027 24.7692 109.975 24.7692C109.823 24.7692 109.748 24.6968 109.748 24.5535C109.748 24.5023 109.771 24.4299 109.817 24.3333C109.855 24.2609 109.883 24.2066 109.903 24.1689L110.995 22.098ZM108.303 24.1418C108.49 24.1418 108.63 24.0422 108.722 23.8416C108.795 23.6848 108.832 23.4917 108.832 23.2655C108.832 23.0437 108.795 22.8552 108.722 22.6968C108.627 22.4947 108.487 22.3922 108.303 22.3922C108.116 22.3922 107.977 22.4917 107.885 22.6923C107.811 22.8492 107.775 23.0407 107.775 23.264C107.775 23.4872 107.811 23.6787 107.885 23.8356C107.98 24.0407 108.119 24.1418 108.303 24.1418ZM108.303 21.7662C108.695 21.7662 109.002 21.9216 109.221 22.2338C109.416 22.5083 109.514 22.8522 109.514 23.2655C109.514 23.6787 109.416 24.0241 109.221 24.3017C109.002 24.6139 108.695 24.7692 108.303 24.7692C107.911 24.7692 107.605 24.6139 107.386 24.3017C107.191 24.0241 107.093 23.6787 107.093 23.2655C107.093 22.8552 107.191 22.5113 107.386 22.2338C107.605 21.9216 107.911 21.7662 108.303 21.7662ZM105.449 22.7904C105.549 22.7632 105.651 22.7496 105.754 22.7496C106.025 22.7496 106.238 22.8447 106.391 23.0332C106.535 23.2097 106.607 23.4344 106.607 23.7089C106.607 24.0075 106.505 24.2594 106.301 24.4631C106.097 24.6667 105.841 24.7692 105.535 24.7692C105.305 24.7692 105.095 24.7195 104.905 24.6214C104.697 24.5143 104.593 24.3861 104.593 24.2338C104.593 24.1373 104.62 24.0588 104.674 23.9985C104.727 23.9367 104.795 23.9065 104.873 23.9065C104.94 23.9065 105.015 23.9306 105.097 23.9789C105.281 24.089 105.42 24.1433 105.515 24.1433C105.634 24.1433 105.728 24.1026 105.797 24.0211C105.866 23.9397 105.901 23.822 105.901 23.6667C105.901 23.5626 105.873 23.4751 105.82 23.4027C105.757 23.3228 105.676 23.2821 105.576 23.2821C105.484 23.2821 105.395 23.3062 105.308 23.356C105.221 23.4057 105.146 23.4299 105.08 23.4299C104.999 23.4299 104.934 23.4088 104.887 23.368C104.839 23.3273 104.816 23.267 104.816 23.19C104.816 23.1478 104.816 23.1086 104.816 23.0724C104.816 23.0362 104.822 22.9744 104.836 22.8869L104.937 22.1026C104.951 21.991 104.991 21.914 105.06 21.8748C105.109 21.8462 105.184 21.8311 105.288 21.8311H106.279C106.377 21.8311 106.453 21.8612 106.505 21.9216C106.557 21.9819 106.584 22.0528 106.584 22.1357C106.584 22.2187 106.56 22.2866 106.511 22.3394C106.454 22.4027 106.376 22.4359 106.279 22.4359H105.495L105.449 22.7904ZM100.536 22.457L100.361 23.5852C100.347 23.6576 100.329 23.7421 100.306 23.8416C100.283 23.9397 100.254 24.0287 100.219 24.1056H101.271V22.457H100.536ZM101.588 21.8582C101.688 21.8582 101.771 21.8884 101.833 21.9487C101.898 22.0091 101.928 22.0845 101.928 22.175V24.1071H102.074C102.177 24.1071 102.256 24.1342 102.313 24.1885C102.37 24.2428 102.399 24.3122 102.399 24.3952V25.0905C102.399 25.181 102.373 25.2564 102.319 25.3152C102.267 25.3741 102.19 25.4027 102.094 25.4027C102.002 25.4027 101.928 25.3741 101.872 25.3167C101.817 25.2594 101.789 25.184 101.789 25.0905V24.7059H99.7528V25.086C99.7528 25.1795 99.7268 25.2549 99.6732 25.3137C99.6211 25.3726 99.5445 25.4012 99.4479 25.4012C99.356 25.4012 99.2825 25.3726 99.2258 25.3152C99.1706 25.2579 99.1431 25.1825 99.1431 25.089V24.3937C99.1431 24.3167 99.1722 24.2489 99.2289 24.1916C99.2855 24.1342 99.3729 24.1056 99.4893 24.1056H99.5215C99.5598 24.0437 99.5935 23.9668 99.6257 23.8718C99.6578 23.7768 99.6839 23.6576 99.7053 23.5143L99.9091 22.2021C99.9305 22.0739 99.9719 21.9849 100.032 21.9336C100.091 21.8824 100.165 21.8582 100.251 21.8582H101.588ZM96.7668 23.2821C96.7668 23.4148 96.7837 23.5354 96.8158 23.644C96.848 23.7526 96.8955 23.8446 96.9583 23.9246C97.0211 24.003 97.0962 24.0634 97.1835 24.1071C97.2709 24.1493 97.3705 24.1704 97.4823 24.1704C97.5957 24.1704 97.6983 24.1478 97.7872 24.1041C97.876 24.0603 97.9511 23.9985 98.0124 23.9201C98.0737 23.8416 98.1196 23.7481 98.1503 23.638C98.1809 23.5294 98.1962 23.4103 98.1962 23.2821C98.1962 23.1539 98.1809 23.0362 98.1503 22.9276C98.1196 22.819 98.0737 22.7255 98.0124 22.6456C97.9511 22.5656 97.876 22.5038 97.7872 22.46C97.6983 22.4163 97.5941 22.3937 97.4777 22.3937C97.3674 22.3937 97.2678 22.4148 97.1805 22.457C97.0932 22.4992 97.0196 22.5611 96.9568 22.6395C96.894 22.718 96.8465 22.8115 96.8143 22.9216C96.7837 23.0317 96.7668 23.1508 96.7668 23.2821ZM97.4823 21.7934C97.6968 21.7934 97.8914 21.8281 98.066 21.8989C98.2407 21.9698 98.3908 22.0694 98.5149 22.1991C98.639 22.3288 98.7355 22.4842 98.8029 22.6667C98.8703 22.8492 98.9041 23.0543 98.9041 23.2805C98.9041 23.5023 98.8703 23.7044 98.8045 23.8869C98.7386 24.0694 98.6436 24.2262 98.5195 24.3575C98.3969 24.4887 98.2468 24.5897 98.0721 24.6621C97.8975 24.7345 97.6999 24.7707 97.4808 24.7707C97.2663 24.7707 97.0717 24.7361 96.897 24.6652C96.7224 24.5943 96.5723 24.4932 96.4482 24.3635C96.3241 24.2323 96.2275 24.0754 96.1601 23.8929C96.0927 23.7104 96.059 23.5068 96.059 23.2836C96.059 23.0573 96.0927 22.8522 96.1601 22.6682C96.2275 22.4842 96.3241 22.3273 96.4482 22.1976C96.5723 22.0679 96.7224 21.9683 96.897 21.8989C97.0732 21.8281 97.2678 21.7934 97.4823 21.7934ZM93.8651 21.8341C93.9739 21.8341 94.0689 21.8899 94.1501 22.0015L94.6173 22.6335L95.0524 22.0377C95.0984 21.9744 95.1459 21.9231 95.1964 21.8884C95.247 21.8522 95.3052 21.8341 95.3726 21.8341C95.4753 21.8341 95.558 21.8643 95.6208 21.9246C95.6837 21.9849 95.7143 22.0543 95.7143 22.1342C95.7143 22.1961 95.702 22.2489 95.676 22.2956C95.6499 22.3424 95.6224 22.3846 95.5933 22.4223L95.0157 23.175L95.702 24.0784C95.7373 24.1267 95.7725 24.175 95.8077 24.2247C95.843 24.2745 95.8598 24.3364 95.8598 24.4103C95.8598 24.5068 95.8292 24.5837 95.7664 24.6425C95.7036 24.7014 95.6285 24.73 95.5381 24.73C95.4707 24.73 95.4125 24.7149 95.365 24.6863C95.3175 24.6576 95.2715 24.6109 95.224 24.546L94.6143 23.73L94.0214 24.5264C93.9677 24.6003 93.9156 24.6531 93.8666 24.6848C93.8176 24.7149 93.7594 24.73 93.692 24.73C93.6 24.73 93.5234 24.6999 93.4622 24.638C93.4009 24.5762 93.3702 24.5008 93.3702 24.4103C93.3702 24.3726 93.3748 24.3379 93.3825 24.3062C93.3901 24.2745 93.4055 24.2443 93.4269 24.2187L94.2159 23.175L93.6383 22.4223C93.6092 22.3846 93.5801 22.3424 93.5556 22.2941C93.5296 22.2459 93.5173 22.1931 93.5173 22.1342C93.5173 22.0513 93.5495 21.9804 93.6123 21.9216C93.6782 21.8627 93.7609 21.8341 93.8651 21.8341ZM91.0354 23.2821C91.0354 23.4148 91.0522 23.5354 91.0844 23.644C91.1166 23.7526 91.1641 23.8446 91.2269 23.9246C91.2897 24.003 91.3647 24.0634 91.4521 24.1071C91.5394 24.1493 91.639 24.1704 91.7508 24.1704C91.8642 24.1704 91.9669 24.1478 92.0557 24.1041C92.1446 24.0603 92.2197 23.9985 92.2809 23.9201C92.3422 23.8416 92.3882 23.7481 92.4188 23.638C92.4495 23.5294 92.4648 23.4103 92.4648 23.2821C92.4648 23.1539 92.4495 23.0362 92.4188 22.9276C92.3882 22.819 92.3422 22.7255 92.2809 22.6456C92.2197 22.5656 92.1446 22.5038 92.0557 22.46C91.9669 22.4163 91.8627 22.3937 91.7462 22.3937C91.6359 22.3937 91.5364 22.4148 91.449 22.457C91.3617 22.4992 91.2882 22.5611 91.2253 22.6395C91.1625 22.718 91.115 22.8115 91.0829 22.9216C91.0507 23.0317 91.0354 23.1508 91.0354 23.2821ZM91.7493 21.7934C91.9638 21.7934 92.1584 21.8281 92.333 21.8989C92.5077 21.9698 92.6578 22.0694 92.7819 22.1991C92.906 22.3288 93.0025 22.4842 93.0699 22.6667C93.1374 22.8492 93.1711 23.0543 93.1711 23.2805C93.1711 23.5023 93.1374 23.7044 93.0715 23.8869C93.0056 24.0694 92.9106 24.2262 92.7865 24.3575C92.6639 24.4887 92.5138 24.5897 92.3392 24.6621C92.1645 24.7345 91.9669 24.7707 91.7478 24.7707C91.5333 24.7707 91.3387 24.7361 91.1641 24.6652C90.9894 24.5943 90.8393 24.4932 90.7152 24.3635C90.5911 24.2323 90.4945 24.0754 90.4271 23.8929C90.3597 23.7104 90.326 23.5068 90.326 23.2836C90.326 23.0573 90.3597 22.8522 90.4271 22.6682C90.4945 22.4842 90.5911 22.3273 90.7152 22.1976C90.8393 22.0679 90.9894 21.9683 91.1641 21.8989C91.3418 21.8281 91.5363 21.7934 91.7493 21.7934ZM88.1964 22.457L88.0218 23.5852C88.008 23.6576 87.9896 23.7421 87.9666 23.8416C87.9436 23.9397 87.9145 24.0287 87.8793 24.1056H88.9318V22.457H88.1964ZM89.249 21.8582C89.3486 21.8582 89.4313 21.8884 89.4941 21.9487C89.5584 22.0091 89.5891 22.0845 89.5891 22.175V24.1071H89.7346C89.8373 24.1071 89.917 24.1342 89.9736 24.1885C90.0303 24.2428 90.0594 24.3122 90.0594 24.3952V25.0905C90.0594 25.181 90.0334 25.2564 89.9798 25.3152C89.9277 25.3741 89.8511 25.4027 89.7546 25.4027C89.6626 25.4027 89.5891 25.3741 89.5324 25.3167C89.4772 25.2594 89.4497 25.184 89.4497 25.0905V24.7059H87.4136V25.086C87.4136 25.1795 87.3875 25.2549 87.3339 25.3137C87.2803 25.3726 87.2052 25.4012 87.1087 25.4012C87.0168 25.4012 86.9432 25.3726 86.8865 25.3152C86.8314 25.2579 86.8038 25.1825 86.8038 25.089V24.3937C86.8038 24.3167 86.8329 24.2489 86.8896 24.1916C86.9463 24.1342 87.0336 24.1056 87.15 24.1056H87.1822C87.2205 24.0437 87.2542 23.9668 87.2864 23.8718C87.317 23.7768 87.3446 23.6576 87.3661 23.5143L87.5698 22.2021C87.5913 22.0739 87.6326 21.9849 87.6924 21.9336C87.7521 21.8824 87.8257 21.8582 87.9115 21.8582H89.249ZM83.5144 21.7376C83.4118 21.7376 83.3153 21.721 83.2234 21.6893C83.133 21.6576 83.0533 21.6139 82.9874 21.5596C82.9215 21.5053 82.8679 21.4404 82.8296 21.365C82.7898 21.2896 82.7714 21.2097 82.7714 21.1207C82.7714 21.0453 82.7898 20.9849 82.8281 20.9367C82.8664 20.8884 82.9246 20.8643 83.0027 20.8643C83.0564 20.8643 83.1023 20.8824 83.1376 20.9201C83.1728 20.9578 83.205 21.0121 83.2356 21.0845C83.2647 21.1538 83.2999 21.2081 83.3398 21.2459C83.3796 21.2851 83.4378 21.3032 83.516 21.3032C83.5941 21.3032 83.6539 21.2836 83.6922 21.2459C83.732 21.2066 83.7657 21.1538 83.7963 21.0845C83.8255 21.0121 83.8592 20.9578 83.8944 20.9201C83.9296 20.8824 83.9741 20.8643 84.0292 20.8643C84.1073 20.8643 84.1656 20.8884 84.2039 20.9367C84.2422 20.9849 84.2606 21.0453 84.2606 21.1207C84.2606 21.2081 84.2406 21.2896 84.2023 21.365C84.1625 21.4389 84.1104 21.5038 84.0445 21.5596C83.9787 21.6139 83.899 21.6576 83.8086 21.6893C83.7136 21.721 83.6171 21.7376 83.5144 21.7376ZM82.5554 21.8341C82.6534 21.8341 82.7316 21.8627 82.7928 21.9216C82.8541 21.9804 82.8848 22.0618 82.8848 22.1659V23.5294H82.8924L84.1074 22.0332C84.161 21.9668 84.2115 21.917 84.259 21.8839C84.3065 21.8507 84.3663 21.8341 84.4398 21.8341C84.5379 21.8341 84.616 21.8627 84.6773 21.9216C84.7386 21.9804 84.7692 22.0618 84.7692 22.1659V24.3982C84.7692 24.5023 84.7386 24.5837 84.6773 24.6425C84.616 24.7014 84.5379 24.73 84.4398 24.73C84.3418 24.73 84.2636 24.7014 84.2023 24.6425C84.1411 24.5837 84.1104 24.5023 84.1104 24.3982V23.0347H84.1028L82.9246 24.4872C82.8541 24.5747 82.7928 24.638 82.7392 24.6757C82.6871 24.7134 82.6243 24.7315 82.5538 24.7315C82.4558 24.7315 82.3776 24.7029 82.3164 24.6456C82.2551 24.5882 82.2244 24.5038 82.2244 24.3922V22.1674C82.2244 22.0634 82.2551 21.9819 82.3164 21.9231C82.3792 21.8628 82.4573 21.8341 82.5554 21.8341ZM81.5779 21.8582C81.6698 21.8582 81.7464 21.8854 81.8062 21.9397C81.8659 21.994 81.895 22.0664 81.895 22.1584C81.895 22.2549 81.8659 22.3288 81.8062 22.3801C81.7464 22.4314 81.6714 22.4585 81.5779 22.4585H80.887V22.9744H81.5212C81.6131 22.9744 81.6898 23.0015 81.7495 23.0543C81.8093 23.1071 81.8384 23.181 81.8384 23.2745C81.8384 23.368 81.8092 23.4419 81.751 23.4947C81.6928 23.5475 81.6162 23.5747 81.5212 23.5747H80.887V24.1071H81.5978C81.6928 24.1071 81.7694 24.1327 81.8292 24.1855C81.8889 24.2368 81.918 24.3122 81.918 24.4072C81.918 24.4977 81.8889 24.5701 81.8292 24.6259C81.7694 24.6802 81.6944 24.7074 81.6009 24.7074H80.5484C80.461 24.7074 80.386 24.6772 80.3232 24.6169C80.2588 24.5566 80.2282 24.4812 80.2282 24.3907V22.175C80.2282 22.0845 80.2603 22.0091 80.3232 21.9487C80.3875 21.8884 80.4626 21.8582 80.5484 21.8582H81.5779ZM79.4606 21.8582C79.5587 21.8582 79.6383 21.8884 79.7027 21.9487C79.767 22.0091 79.7976 22.0845 79.7976 22.175V24.3997C79.7976 24.5038 79.767 24.5852 79.7057 24.644C79.6444 24.7029 79.5663 24.7315 79.4683 24.7315C79.3702 24.7315 79.2921 24.7029 79.2308 24.644C79.1695 24.5852 79.1389 24.5038 79.1389 24.3997V22.46H78.3667L78.192 23.8115C78.1537 24.0935 78.0634 24.3183 77.9224 24.4842C77.7799 24.6501 77.6007 24.7315 77.3846 24.7315C77.2866 24.7315 77.21 24.7014 77.1518 24.641C77.0936 24.5807 77.0644 24.5008 77.0644 24.3997C77.0644 24.279 77.1196 24.1961 77.2314 24.1478C77.3402 24.1026 77.4184 24.0362 77.4674 23.9502C77.5164 23.8643 77.5501 23.7466 77.5685 23.6003L77.7477 22.1916C77.7646 22.0634 77.8044 21.9759 77.8672 21.9291C77.9316 21.8824 77.9975 21.8597 78.0679 21.8597H79.4606V21.8582ZM76.5941 21.8582C76.686 21.8582 76.7626 21.8854 76.8208 21.9397C76.8806 21.994 76.9097 22.0664 76.9097 22.1584C76.9097 22.2549 76.8806 22.3288 76.8208 22.3801C76.7611 22.4314 76.686 22.4585 76.5941 22.4585H75.9031V22.9744H76.5374C76.6293 22.9744 76.7059 23.0015 76.7657 23.0543C76.8254 23.1071 76.8546 23.181 76.8546 23.2745C76.8546 23.368 76.8254 23.4419 76.7672 23.4947C76.709 23.5475 76.6324 23.5747 76.5374 23.5747H75.9031V24.1071H76.614C76.709 24.1071 76.7856 24.1327 76.8454 24.1855C76.9051 24.2368 76.9342 24.3122 76.9342 24.4072C76.9342 24.4977 76.9051 24.5701 76.8454 24.6259C76.7856 24.6802 76.7105 24.7074 76.6171 24.7074H75.5646C75.4772 24.7074 75.4022 24.6772 75.3393 24.6169C75.275 24.5566 75.2444 24.4812 75.2444 24.3907V22.175C75.2444 22.0845 75.2765 22.0091 75.3393 21.9487C75.4037 21.8884 75.4788 21.8582 75.5646 21.8582H76.5941ZM74.7234 21.8582C74.823 21.8582 74.9042 21.8854 74.9625 21.9382C75.0222 21.991 75.0513 22.0649 75.0513 22.1584C75.0513 22.2519 75.0222 22.3258 74.9625 22.3786C74.9027 22.4314 74.823 22.4585 74.7234 22.4585H74.342V24.3982C74.342 24.5023 74.3113 24.5837 74.25 24.6425C74.1888 24.7014 74.1091 24.73 74.0126 24.73C73.9145 24.73 73.8364 24.7014 73.7751 24.6425C73.7138 24.5837 73.6832 24.5023 73.6832 24.3982V22.4585H73.3017C73.2021 22.4585 73.1209 22.4314 73.0627 22.3786C73.0029 22.3258 72.9738 22.2519 72.9738 22.1584C72.9738 22.0649 73.0029 21.9925 73.0627 21.9382C73.1224 21.8854 73.2021 21.8582 73.3017 21.8582H74.7234ZM70.5654 21.8341C70.6635 21.8341 70.7416 21.8627 70.8029 21.9216C70.8642 21.9804 70.8948 22.0618 70.8948 22.1659V23.5294H70.9025L72.1174 22.0332C72.171 21.9668 72.2231 21.917 72.2691 21.8839C72.3166 21.8507 72.3763 21.8341 72.4499 21.8341C72.5479 21.8341 72.626 21.8627 72.6873 21.9216C72.7486 21.9804 72.7793 22.0618 72.7793 22.1659V24.3982C72.7793 24.5023 72.7486 24.5837 72.6873 24.6425C72.626 24.7014 72.5464 24.73 72.4499 24.73C72.3518 24.73 72.2737 24.7014 72.2124 24.6425C72.1511 24.5837 72.1205 24.5023 72.1205 24.3982V23.0347H72.1128L70.9346 24.4872C70.8642 24.5747 70.8029 24.638 70.7493 24.6757C70.6972 24.7134 70.6344 24.7315 70.5639 24.7315C70.4658 24.7315 70.3877 24.7029 70.3264 24.6456C70.2651 24.5882 70.2345 24.5038 70.2345 24.3922V22.1674C70.2345 22.0634 70.2651 21.9819 70.3264 21.9231C70.3877 21.8628 70.4674 21.8341 70.5654 21.8341ZM68.0314 22.457L67.8567 23.5852C67.8429 23.6576 67.8246 23.7421 67.8016 23.8416C67.7786 23.9397 67.7495 24.0287 67.7142 24.1056H68.7668V22.457H68.0314ZM69.0839 21.8582C69.1835 21.8582 69.2662 21.8884 69.329 21.9487C69.3934 22.0091 69.424 22.0845 69.424 22.175V24.1071H69.5696C69.6722 24.1071 69.7519 24.1342 69.8086 24.1885C69.8653 24.2428 69.8944 24.3122 69.8944 24.3952V25.0905C69.8944 25.181 69.8683 25.2564 69.8147 25.3152C69.7626 25.3741 69.686 25.4027 69.5895 25.4027C69.4976 25.4027 69.424 25.3741 69.3673 25.3167C69.3122 25.2594 69.2846 25.184 69.2846 25.0905V24.7059H67.2485V25.086C67.2485 25.1795 67.2225 25.2549 67.1688 25.3137C67.1152 25.3726 67.0401 25.4012 66.9436 25.4012C66.8517 25.4012 66.7782 25.3726 66.7215 25.3152C66.6663 25.2579 66.6387 25.1825 66.6387 25.089V24.3937C66.6387 24.3167 66.6678 24.2489 66.7245 24.1916C66.7812 24.1342 66.8685 24.1056 66.985 24.1056H67.0172C67.0555 24.0437 67.0892 23.9668 67.1213 23.8718C67.152 23.7768 67.1796 23.6576 67.201 23.5143L67.4048 22.2021C67.4262 22.0739 67.4676 21.9849 67.5273 21.9336C67.5871 21.8824 67.6606 21.8582 67.7464 21.8582H69.0839ZM64.264 23.2821C64.264 23.4148 64.2809 23.5354 64.3131 23.644C64.3452 23.7526 64.3927 23.8446 64.4555 23.9246C64.5184 24.003 64.5934 24.0634 64.6808 24.1071C64.7681 24.1493 64.8677 24.1704 64.9795 24.1704C65.0929 24.1704 65.1955 24.1478 65.2844 24.1041C65.3732 24.0603 65.4483 23.9985 65.5096 23.9201C65.5709 23.8416 65.6168 23.7481 65.6475 23.638C65.6781 23.5294 65.6934 23.4103 65.6934 23.2821C65.6934 23.1539 65.6781 23.0362 65.6475 22.9276C65.6168 22.819 65.5709 22.7255 65.5096 22.6456C65.4483 22.5656 65.3732 22.5038 65.2844 22.46C65.1955 22.4163 65.0913 22.3937 64.9749 22.3937C64.8646 22.3937 64.765 22.4148 64.6777 22.457C64.5904 22.4992 64.5168 22.5611 64.454 22.6395C64.3912 22.718 64.3437 22.8115 64.3115 22.9216C64.2793 23.0317 64.264 23.1508 64.264 23.2821ZM64.9795 21.7934C65.194 21.7934 65.3886 21.8281 65.5632 21.8989C65.7379 21.9698 65.888 22.0694 66.0121 22.1991C66.1362 22.3288 66.2327 22.4842 66.3001 22.6667C66.3676 22.8492 66.4013 23.0543 66.4013 23.2805C66.4013 23.5023 66.3676 23.7044 66.3017 23.8869C66.2358 24.0694 66.1408 24.2262 66.0167 24.3575C65.8941 24.4887 65.744 24.5897 65.5694 24.6621C65.3947 24.7345 65.1971 24.7707 64.978 24.7707C64.7635 24.7707 64.5689 24.7361 64.3943 24.6652C64.2196 24.5943 64.0695 24.4932 63.9454 24.3635C63.8213 24.2323 63.7247 24.0754 63.6573 23.8929C63.5899 23.7104 63.5562 23.5068 63.5562 23.2836C63.5562 23.0573 63.5899 22.8522 63.6573 22.6682C63.7247 22.4842 63.8213 22.3273 63.9454 22.1976C64.0695 22.0679 64.2196 21.9683 64.3943 21.8989C64.5704 21.8281 64.765 21.7934 64.9795 21.7934ZM62.1942 24.1297C62.3106 24.1297 62.4041 24.1056 62.473 24.0558C62.542 24.006 62.5772 23.9336 62.5772 23.8371C62.5772 23.7406 62.5389 23.6682 62.4639 23.6184C62.3872 23.5686 62.2969 23.5445 62.1911 23.5445H61.7652V24.1282H62.1942V24.1297ZM62.0762 22.9698C62.1574 22.9698 62.2264 22.9472 62.2815 22.9035C62.3367 22.8597 62.3643 22.7919 62.3643 22.7014C62.3643 22.6109 62.3367 22.543 62.2831 22.4992C62.2294 22.4555 62.159 22.4329 62.0716 22.4329H61.7622V22.9683H62.0762V22.9698ZM62.2264 21.8582C62.3398 21.8582 62.4455 21.8763 62.542 21.911C62.6385 21.9457 62.7228 21.9955 62.7932 22.0588C62.8653 22.1222 62.9219 22.2006 62.9618 22.2926C63.0031 22.3846 63.0231 22.4872 63.0231 22.6033C63.0231 22.7149 62.9924 22.8175 62.9311 22.911C62.8699 23.0045 62.7856 23.083 62.6768 23.1463C62.8561 23.184 62.997 23.2655 63.1012 23.3907C63.2054 23.5158 63.2575 23.6682 63.2575 23.8462C63.2575 23.9774 63.2345 24.095 63.1885 24.2021C63.1426 24.3092 63.0767 24.3997 62.9894 24.4736C62.902 24.5475 62.7978 24.6063 62.6768 24.6456C62.5542 24.6863 62.4194 24.7059 62.2708 24.7059H61.4251C61.3378 24.7059 61.2627 24.6757 61.1999 24.6154C61.1355 24.5551 61.1049 24.4796 61.1049 24.3891V22.1735C61.1049 22.083 61.1371 22.0075 61.1999 21.9472C61.2642 21.8869 61.3393 21.8567 61.4251 21.8567H62.2264V21.8582ZM57.9534 23.2142C58.0775 23.2142 58.1802 23.1765 58.2599 23.0996C58.3395 23.0241 58.3794 22.9321 58.3794 22.825C58.3794 22.6968 58.3395 22.6003 58.2614 22.5324C58.1833 22.4661 58.0806 22.4329 57.9565 22.4329H57.5903V23.2127H57.9534V23.2142ZM58.0883 21.8582C58.2078 21.8582 58.3257 21.8793 58.4422 21.9201C58.5586 21.9608 58.6628 22.0211 58.7547 22.0996C58.8466 22.178 58.9217 22.276 58.9784 22.3937C59.0351 22.5113 59.0642 22.6456 59.0642 22.7979C59.0642 22.9548 59.0412 23.095 58.9968 23.2172C58.9524 23.3394 58.888 23.4434 58.8037 23.5279C58.7195 23.6124 58.6199 23.6772 58.5035 23.7225C58.387 23.7677 58.2553 23.7904 58.1097 23.7904H57.5934V24.3982C57.5934 24.5023 57.5628 24.5837 57.5015 24.6425C57.4402 24.7014 57.3605 24.73 57.264 24.73C57.166 24.73 57.0878 24.7014 57.0265 24.6425C56.9653 24.5837 56.9346 24.5023 56.9346 24.3982V22.1735C56.9346 22.083 56.9668 22.0075 57.0296 21.9472C57.094 21.8869 57.169 21.8567 57.2548 21.8567H58.0883V21.8582ZM54.4374 23.2821C54.4374 23.4148 54.4542 23.5354 54.4864 23.644C54.5186 23.7526 54.5661 23.8446 54.6289 23.9246C54.6917 24.003 54.7668 24.0634 54.8541 24.1071C54.9414 24.1493 55.041 24.1704 55.1528 24.1704C55.2662 24.1704 55.3689 24.1478 55.4577 24.1041C55.5466 24.0603 55.6216 23.9985 55.6829 23.9201C55.7442 23.8416 55.7902 23.7481 55.8208 23.638C55.8515 23.5294 55.8683 23.4103 55.8683 23.2821C55.8683 23.1539 55.853 23.0362 55.8208 22.9276C55.7902 22.819 55.7442 22.7255 55.6829 22.6456C55.6216 22.5656 55.5466 22.5038 55.4577 22.46C55.3689 22.4163 55.2647 22.3937 55.1482 22.3937C55.0379 22.3937 54.9383 22.4148 54.851 22.457C54.7637 22.4992 54.6901 22.5611 54.6273 22.6395C54.5645 22.718 54.517 22.8115 54.4849 22.9216C54.4542 23.0317 54.4374 23.1508 54.4374 23.2821ZM55.1528 21.7934C55.3673 21.7934 55.5619 21.8281 55.7365 21.8989C55.9112 21.9698 56.0613 22.0694 56.1854 22.1991C56.3095 22.3288 56.4061 22.4842 56.4735 22.6667C56.5409 22.8492 56.5746 23.0543 56.5746 23.2805C56.5746 23.5023 56.5409 23.7044 56.475 23.8869C56.4091 24.0694 56.3141 24.2262 56.19 24.3575C56.0675 24.4887 55.9173 24.5897 55.7427 24.6621C55.568 24.7345 55.3704 24.7707 55.1513 24.7707C54.9368 24.7707 54.7422 24.7361 54.5676 24.6652C54.3929 24.5943 54.2428 24.4932 54.1187 24.3635C53.9946 24.2323 53.8981 24.0754 53.8307 23.8929C53.7632 23.7104 53.7295 23.5068 53.7295 23.2836C53.7295 23.0573 53.7632 22.8522 53.8307 22.6682C53.8981 22.4842 53.9946 22.3273 54.1187 22.1976C54.2428 22.0679 54.3929 21.9683 54.5676 21.8989C54.7438 21.8281 54.9383 21.7934 55.1528 21.7934ZM52.3752 24.1297C52.4886 24.1297 52.582 24.1026 52.654 24.0483C52.726 23.994 52.7613 23.917 52.7613 23.819C52.7613 23.7074 52.7245 23.6275 52.6494 23.5792C52.5744 23.5309 52.484 23.5068 52.3752 23.5068H51.8788V24.1312H52.3752V24.1297ZM52.7168 21.8582C52.8164 21.8582 52.8976 21.8854 52.9558 21.9382C53.0156 21.991 53.0447 22.0649 53.0447 22.1584C53.0447 22.2519 53.0156 22.3258 52.9558 22.3786C52.8961 22.4314 52.8164 22.4585 52.7168 22.4585H51.8803V22.9065H52.5146C52.6525 22.9065 52.7781 22.9291 52.893 22.9729C53.0064 23.0166 53.1045 23.0769 53.1857 23.1554C53.2669 23.2323 53.3312 23.3243 53.3772 23.4314C53.4231 23.5385 53.4461 23.6561 53.4461 23.7828C53.4461 23.9246 53.4231 24.0513 53.3772 24.1644C53.3312 24.2775 53.2653 24.3741 53.1795 24.454C53.0937 24.5339 52.9911 24.5958 52.8685 24.6395C52.746 24.6833 52.6096 24.7059 52.4579 24.7059H51.5433C51.456 24.7059 51.3809 24.6757 51.3181 24.6154C51.2537 24.5551 51.2231 24.4796 51.2231 24.3891V22.1735C51.2231 22.083 51.2553 22.0075 51.3181 21.9472C51.3824 21.8869 51.459 21.8567 51.5509 21.8567H52.7168V21.8582ZM49.6726 21.7934C49.7891 21.7934 49.8856 21.8281 49.9607 21.8989C50.0357 21.9698 50.0985 22.0694 50.1476 22.1976L50.8539 24.0664C50.8784 24.1297 50.8998 24.1961 50.9213 24.2624C50.9412 24.3288 50.9519 24.3952 50.9519 24.4631C50.9519 24.546 50.9228 24.6109 50.8646 24.6591C50.8064 24.7074 50.7298 24.7315 50.6348 24.7315C50.5352 24.7315 50.4601 24.7029 50.4111 24.6471C50.3621 24.5913 50.3222 24.5128 50.2885 24.4118L50.2073 24.1599H49.1272L49.0506 24.3997C49.0092 24.5279 48.9633 24.6154 48.9112 24.6621C48.8591 24.7089 48.7886 24.7315 48.7013 24.7315C48.6063 24.7315 48.5297 24.7074 48.4715 24.6591C48.4133 24.6109 48.3842 24.546 48.3842 24.4631C48.3842 24.3997 48.3949 24.3318 48.4148 24.2624C48.4347 24.1931 48.4577 24.1282 48.4822 24.0664L49.1885 22.1976C49.2375 22.0694 49.2988 21.9698 49.3754 21.8989C49.452 21.8296 49.5501 21.7934 49.6726 21.7934ZM49.3233 23.5581H50.0143L49.6849 22.5143H49.6772L49.3233 23.5581ZM45.9007 21.8341C45.9987 21.8341 46.0769 21.8627 46.1382 21.9216C46.1994 21.9804 46.2301 22.0618 46.2301 22.1659V22.9457H47.4573V22.1659C47.4573 22.0618 47.4879 21.9804 47.5492 21.9216C47.6105 21.8627 47.6901 21.8341 47.7867 21.8341C47.8847 21.8341 47.9628 21.8627 48.0241 21.9216C48.0854 21.9804 48.116 22.0618 48.116 22.1659V24.3982C48.116 24.5023 48.0854 24.5837 48.0241 24.6425C47.9628 24.7014 47.8832 24.73 47.7867 24.73C47.6886 24.73 47.6105 24.7014 47.5492 24.6425C47.4879 24.5837 47.4573 24.5023 47.4573 24.3982V23.546H46.2301V24.3982C46.2301 24.5023 46.1994 24.5837 46.1382 24.6425C46.0769 24.7014 45.9972 24.73 45.9007 24.73C45.8026 24.73 45.7245 24.7014 45.6632 24.6425C45.6019 24.5837 45.5713 24.5023 45.5713 24.3982V22.1659C45.5713 22.0618 45.6019 21.9804 45.6632 21.9216C45.723 21.8627 45.8026 21.8341 45.9007 21.8341Z" fill="#FECC00"/>
<path d="M115.696 24.1417C115.882 24.1417 116.022 24.0421 116.114 23.8415C116.187 23.6847 116.224 23.4916 116.224 23.2654C116.224 23.0436 116.187 22.8551 116.114 22.6967C116.019 22.4946 115.879 22.3921 115.696 22.3921C115.509 22.3921 115.369 22.4916 115.277 22.6922C115.204 22.8491 115.167 23.0406 115.167 23.2639C115.167 23.4871 115.204 23.6786 115.277 23.8355C115.372 24.0406 115.512 24.1417 115.696 24.1417ZM115.696 21.7661C116.088 21.7661 116.394 21.9215 116.613 22.2337C116.808 22.5082 116.906 22.8521 116.906 23.2654C116.906 23.6786 116.808 24.024 116.613 24.3016C116.394 24.6138 116.088 24.7691 115.696 24.7691C115.303 24.7691 114.997 24.6138 114.778 24.3016C114.583 24.024 114.485 23.6786 114.485 23.2654C114.485 22.8551 114.583 22.5112 114.778 22.2337C114.997 21.9215 115.303 21.7661 115.696 21.7661ZM112.841 22.7902C112.941 22.7631 113.044 22.7495 113.146 22.7495C113.417 22.7495 113.63 22.8445 113.784 23.0331C113.928 23.2096 114 23.4343 114 23.7088C114 24.0074 113.897 24.2593 113.693 24.4629C113.489 24.6666 113.234 24.7691 112.927 24.7691C112.697 24.7691 112.487 24.7194 112.297 24.6213C112.089 24.5142 111.985 24.386 111.985 24.2337C111.985 24.1372 112.012 24.0587 112.066 23.9984C112.12 23.9366 112.187 23.9064 112.265 23.9064C112.333 23.9064 112.408 23.9305 112.489 23.9788C112.673 24.0889 112.812 24.1432 112.907 24.1432C113.027 24.1432 113.12 24.1025 113.189 24.021C113.258 23.9396 113.293 23.8219 113.293 23.6666C113.293 23.5625 113.266 23.475 113.212 23.4026C113.149 23.3227 113.068 23.282 112.968 23.282C112.877 23.282 112.788 23.3061 112.7 23.3559C112.613 23.4056 112.538 23.4298 112.472 23.4298C112.391 23.4298 112.327 23.4086 112.279 23.3679C112.232 23.3272 112.209 23.2669 112.209 23.1899C112.209 23.1477 112.209 23.1085 112.209 23.0723C112.209 23.0361 112.215 22.9743 112.228 22.8868L112.33 22.1025C112.343 21.9908 112.383 21.9139 112.452 21.8747C112.501 21.8461 112.576 21.831 112.679 21.831H113.67C113.768 21.831 113.843 21.8611 113.895 21.9215C113.947 21.9818 113.975 22.0527 113.975 22.1356C113.975 22.2186 113.951 22.2865 113.901 22.3393C113.845 22.4026 113.767 22.4358 113.67 22.4358H112.886L112.841 22.7902Z" fill="#FECC00"/>
<path d="M44.159 9.34684C43.9277 9.5746 43.5523 9.5746 43.321 9.34684C43.0896 9.11909 43.0896 8.74956 43.321 8.52181C43.5875 8.25936 43.9093 8.04518 44.2662 7.89888C44.611 7.7571 44.9863 7.68018 45.377 7.68018H115.794C116.185 7.68018 116.56 7.75861 116.905 7.89888C117.262 8.04518 117.583 8.25785 117.85 8.52181C118.081 8.74956 118.081 9.11909 117.85 9.34684C117.619 9.5746 117.243 9.5746 117.012 9.34684C116.851 9.18847 116.659 9.06027 116.45 8.97429C116.249 8.89134 116.027 8.84609 115.792 8.84609H45.3785C45.1441 8.84609 44.922 8.89134 44.7213 8.97429C44.5114 9.06027 44.3199 9.18847 44.159 9.34684ZM117.015 17.1885C117.246 16.9607 117.622 16.9607 117.853 17.1885C118.084 17.4162 118.084 17.7858 117.853 18.0135C117.586 18.276 117.265 18.4901 116.908 18.6364C116.563 18.7782 116.188 18.8551 115.797 18.8551H45.3785C44.9879 18.8551 44.6125 18.7767 44.2678 18.6364C43.9108 18.4901 43.5891 18.2775 43.3225 18.0135C43.0912 17.7858 43.0912 17.4162 43.3225 17.1885C43.5538 16.9607 43.9292 16.9607 44.1605 17.1885C44.3214 17.3468 44.5129 17.475 44.7228 17.561C44.9235 17.644 45.1457 17.6892 45.3801 17.6892H115.797C116.031 17.6892 116.253 17.644 116.454 17.561C116.663 17.475 116.854 17.3468 117.015 17.1885Z" fill="#FECC00"/>
<path d="M114.056 30.1357H113.025C112.829 30.1357 112.677 30.092 112.57 30.006C112.462 29.92 112.407 29.7828 112.407 29.5942C112.407 29.4117 112.459 29.276 112.565 29.19C112.671 29.104 112.824 29.0603 113.025 29.0603H115.283C115.484 29.0603 115.632 29.107 115.727 29.2006C115.798 29.2699 115.833 29.3604 115.833 29.4751C115.833 29.5641 115.782 29.6772 115.683 29.8159L114.071 31.9653H115.314C115.51 31.9653 115.661 32.009 115.769 32.095C115.876 32.1809 115.931 32.3167 115.931 32.4992C115.931 32.6817 115.876 32.8174 115.766 32.9064C115.655 32.9954 115.505 33.0392 115.314 33.0392H112.934C112.824 33.0392 112.747 33.0346 112.704 33.0241C112.662 33.0135 112.611 32.9924 112.55 32.9577C112.49 32.923 112.444 32.8793 112.415 32.828C112.384 32.7767 112.37 32.7088 112.37 32.6244C112.37 32.5656 112.381 32.5052 112.401 32.4464C112.421 32.3876 112.472 32.3031 112.551 32.1945L114.056 30.1357ZM106.585 27.8823C106.585 27.7088 106.639 27.5656 106.748 27.4494C106.855 27.3333 106.998 27.276 107.174 27.276C107.344 27.276 107.485 27.3348 107.595 27.4539C107.705 27.5731 107.76 27.7164 107.76 27.8838V30.3665L108.716 29.4177C108.862 29.2745 108.963 29.1824 109.018 29.1432C109.133 29.0588 109.254 29.0165 109.38 29.0165C109.55 29.0165 109.688 29.0678 109.794 29.1719C109.899 29.276 109.951 29.4012 109.951 29.5505C109.951 29.6696 109.899 29.7873 109.794 29.9064C109.763 29.9411 109.679 30.0271 109.538 30.1659L108.905 30.7888L109.892 32.0346C109.971 32.1342 110.033 32.2156 110.072 32.279C110.138 32.3831 110.17 32.472 110.17 32.5459C110.17 32.6787 110.126 32.7978 110.036 32.9019C109.925 33.0256 109.777 33.0874 109.591 33.0874C109.45 33.0874 109.34 33.0633 109.26 33.0135C109.181 32.9637 109.077 32.8582 108.952 32.6953L107.777 31.1613L107.762 32.4811C107.762 32.6545 107.708 32.7978 107.6 32.914C107.492 33.0301 107.35 33.0889 107.174 33.0889C107.004 33.0889 106.863 33.0316 106.752 32.9185C106.642 32.8054 106.587 32.6591 106.587 32.4811V27.8823H106.585ZM103.224 31.8552C103.4 31.8552 103.553 31.92 103.684 32.0482C103.814 32.1764 103.88 32.3303 103.88 32.5082C103.88 32.6862 103.814 32.8386 103.684 32.9683C103.553 33.0965 103.4 33.1613 103.224 33.1613C103.043 33.1613 102.889 33.098 102.761 32.9728C102.633 32.8461 102.57 32.6923 102.57 32.5098C102.57 32.3363 102.634 32.1855 102.761 32.0542C102.889 31.92 103.043 31.8552 103.224 31.8552ZM99.4184 27.2745C99.6145 27.2745 99.7799 27.3408 99.9148 27.4751C100.05 27.6078 100.119 27.7737 100.119 27.9713C100.119 28.1689 100.051 28.3348 99.9148 28.4675C99.7799 28.6003 99.613 28.6681 99.4184 28.6681C99.2223 28.6681 99.0568 28.6018 98.922 28.4675C98.7872 28.3348 98.7182 28.1689 98.7182 27.9713C98.7182 27.7782 98.7872 27.6138 98.9251 27.4781C99.063 27.3423 99.2269 27.2745 99.4184 27.2745ZM98.8316 29.6168C98.8316 29.4494 98.8852 29.3061 98.994 29.19C99.1013 29.0739 99.2437 29.0165 99.4199 29.0165C99.59 29.0165 99.7309 29.0739 99.8412 29.187C99.9515 29.3001 100.007 29.4434 100.007 29.6168V32.4781C100.007 32.6515 99.9531 32.7948 99.8443 32.911C99.7371 33.0271 99.5946 33.0859 99.4184 33.0859C99.2483 33.0859 99.1074 33.0286 98.9971 32.9155C98.8868 32.8024 98.8316 32.6561 98.8316 32.4781V29.6168ZM93.8509 30.9441L93.2411 30.3001C93.071 30.1176 92.9745 30.0135 92.9546 29.9894C92.8443 29.8567 92.7891 29.733 92.7891 29.6183C92.7891 29.4404 92.8458 29.2956 92.9592 29.1855C93.0726 29.0739 93.2043 29.018 93.3545 29.018C93.4893 29.018 93.5996 29.0377 93.6823 29.0769C93.7651 29.1161 93.8493 29.19 93.9351 29.2986L94.5602 30.0693L95.1853 29.2986C95.2803 29.19 95.3676 29.1161 95.4457 29.0769C95.5239 29.0377 95.6296 29.018 95.7659 29.018C95.9161 29.018 96.0478 29.0739 96.1612 29.1855C96.2746 29.2971 96.3313 29.4419 96.3313 29.6183C96.3313 29.742 96.2807 29.8627 96.1811 29.9818C96.1704 29.9969 96.0708 30.1025 95.8793 30.3001L95.2696 30.9441L96.2715 32.0045C96.3512 32.0889 96.4048 32.1523 96.4293 32.1975C96.4799 32.2865 96.5044 32.3876 96.5044 32.5007C96.5044 32.6787 96.4446 32.8205 96.3282 32.9275C96.2102 33.0331 96.0678 33.0874 95.9023 33.0874C95.8165 33.0874 95.7353 33.0693 95.6572 33.0316C95.579 32.9939 95.4871 32.914 95.3829 32.7903L94.5617 31.834L93.7405 32.7903C93.6394 32.914 93.5521 32.9939 93.477 33.0316C93.402 33.0693 93.3162 33.0874 93.2212 33.0874C93.0557 33.0874 92.9132 33.0346 92.7953 32.9275C92.6773 32.822 92.6191 32.6787 92.6191 32.5007C92.6191 32.3921 92.6436 32.2926 92.6942 32.2036C92.7187 32.1644 92.7723 32.098 92.8519 32.003L93.8509 30.9441ZM87.6062 31.0467C87.6062 31.3333 87.6782 31.5701 87.8206 31.7586C87.9631 31.9456 88.1608 32.0407 88.412 32.0407C88.6633 32.0407 88.8594 31.9456 89.0034 31.7556C89.1459 31.5656 89.2179 31.3288 89.2179 31.0482C89.2179 30.7662 89.1505 30.5369 89.0141 30.3589C88.864 30.1613 88.6633 30.0618 88.412 30.0618C88.1608 30.0618 87.9647 30.1553 87.8206 30.3438C87.6782 30.5309 87.6062 30.7662 87.6062 31.0467ZM90.3915 32.4781C90.3915 32.6515 90.3378 32.7948 90.2291 32.911C90.1218 33.0271 89.9793 33.0859 89.8031 33.0859C89.6775 33.0859 89.5657 33.0482 89.4676 32.9743C89.3696 32.9004 89.2976 32.8129 89.2531 32.7149C89.0065 33.012 88.6709 33.1598 88.245 33.1598C87.7379 33.1598 87.3089 32.9547 86.9581 32.5444C86.6073 32.1342 86.4311 31.6349 86.4311 31.0467C86.4311 30.4585 86.6057 29.9607 86.955 29.5535C87.3043 29.1463 87.7348 28.9426 88.2466 28.9426C88.4779 28.9426 88.6694 28.9743 88.8226 29.0392C88.9758 29.104 89.1198 29.2202 89.2562 29.3876C89.3068 29.2835 89.3711 29.2006 89.4523 29.1357C89.5534 29.0573 89.6698 29.0165 89.8062 29.0165C89.9763 29.0165 90.1172 29.0739 90.2275 29.187C90.3378 29.3001 90.393 29.4434 90.393 29.6168V32.4781H90.3915ZM81.9498 30.1357H81.8149C81.6188 30.1357 81.4672 30.092 81.3599 30.006C81.2527 29.92 81.1975 29.7828 81.1975 29.5942C81.1975 29.4117 81.2496 29.276 81.3553 29.19C81.461 29.104 81.6142 29.0603 81.8149 29.0603H81.9498V28.2971C81.9498 28.1236 82.0034 27.9788 82.1122 27.8642C82.2194 27.7481 82.3619 27.6907 82.5381 27.6907C82.7081 27.6907 82.8491 27.7481 82.9594 27.8612C83.0697 27.9743 83.1249 28.1206 83.1249 28.2986V29.0618H83.4481C83.6442 29.0618 83.7959 29.1055 83.9032 29.1915C84.0104 29.2775 84.0656 29.4132 84.0656 29.5957C84.0656 29.7782 84.0104 29.914 83.9001 30.003C83.7898 30.092 83.6396 30.1357 83.4481 30.1357H83.1249V32.4781C83.1249 32.6515 83.0712 32.7948 82.9625 32.911C82.8552 33.0271 82.7127 33.0859 82.5365 33.0859C82.3665 33.0859 82.2255 33.0286 82.1152 32.9155C82.0049 32.8024 81.9498 32.6561 81.9498 32.4781V30.1357ZM76.059 31.0467C76.059 31.3333 76.131 31.5701 76.2735 31.7586C76.4159 31.9456 76.6136 32.0407 76.8648 32.0407C77.1161 32.0407 77.3122 31.9456 77.4562 31.7556C77.5987 31.5656 77.6707 31.3288 77.6707 31.0482C77.6707 30.7662 77.6033 30.5369 77.4669 30.3589C77.3168 30.1613 77.1161 30.0618 76.8648 30.0618C76.6136 30.0618 76.4175 30.1553 76.2735 30.3438C76.1294 30.5309 76.059 30.7662 76.059 31.0467ZM78.8443 32.4781C78.8443 32.6515 78.7906 32.7948 78.6819 32.911C78.5746 33.0271 78.4321 33.0859 78.256 33.0859C78.1303 33.0859 78.0185 33.0482 77.9204 32.9743C77.8224 32.9004 77.7504 32.8129 77.7059 32.7149C77.4593 33.012 77.1238 33.1598 76.6978 33.1598C76.1907 33.1598 75.7617 32.9547 75.4109 32.5444C75.0601 32.1342 74.8839 31.6349 74.8839 31.0467C74.8839 30.4585 75.0585 29.9607 75.4078 29.5535C75.7572 29.1463 76.1877 28.9426 76.6994 28.9426C76.9307 28.9426 77.1222 28.9743 77.2754 29.0392C77.4286 29.104 77.5727 29.2202 77.709 29.3876C77.7596 29.2835 77.8239 29.2006 77.9051 29.1357C78.0062 29.0573 78.1227 29.0165 78.259 29.0165C78.4291 29.0165 78.57 29.0739 78.6803 29.187C78.7906 29.3001 78.8458 29.4434 78.8458 29.6168V32.4781H78.8443ZM69.7392 31.0467C69.7392 31.3333 69.8112 31.5701 69.9537 31.7586C70.0962 31.9456 70.2938 32.0407 70.5451 32.0407C70.7963 32.0407 70.9924 31.9456 71.1364 31.7556C71.2789 31.5656 71.3509 31.3288 71.3509 31.0482C71.3509 30.7662 71.2835 30.5369 71.1472 30.3589C70.997 30.1613 70.7963 30.0618 70.5451 30.0618C70.2938 30.0618 70.0977 30.1553 69.9537 30.3438C69.8097 30.5309 69.7392 30.7662 69.7392 31.0467ZM72.5245 32.4781C72.5245 32.6515 72.4709 32.7948 72.3621 32.911C72.2549 33.0271 72.1124 33.0859 71.9362 33.0859C71.8106 33.0859 71.6987 33.0482 71.6007 32.9743C71.5026 32.9004 71.4306 32.8129 71.3862 32.7149C71.1395 33.012 70.804 33.1598 70.3781 33.1598C69.871 33.1598 69.442 32.9547 69.0911 32.5444C68.7403 32.1342 68.5641 31.6349 68.5641 31.0467C68.5641 30.4585 68.7388 29.9607 69.0881 29.5535C69.4374 29.1463 69.8679 28.9426 70.3796 28.9426C70.6155 28.9426 70.8132 28.9743 70.974 29.0392C71.0951 29.0889 71.2192 29.1659 71.3509 29.2684V27.8823C71.3509 27.7088 71.4046 27.5656 71.5133 27.4494C71.6221 27.3333 71.7631 27.276 71.9392 27.276C72.1093 27.276 72.2503 27.3348 72.3606 27.4539C72.4709 27.5731 72.526 27.7164 72.526 27.8838V32.4781H72.5245ZM62.5523 29.6168C62.5523 29.4494 62.6059 29.3061 62.7147 29.19C62.8219 29.0739 62.9644 29.0165 63.1406 29.0165C63.2861 29.0165 63.4148 29.0558 63.5251 29.1357C63.6155 29.2006 63.6829 29.2835 63.7289 29.3876C63.9189 29.0904 64.2559 28.9426 64.737 28.9426C65.169 28.9426 65.5122 29.0512 65.7681 29.2684C66.0546 29.5113 66.1971 29.8582 66.1971 30.3137V32.4781C66.1971 32.6515 66.1434 32.7948 66.0347 32.911C65.9274 33.0271 65.7849 33.0859 65.6087 33.0859C65.4387 33.0859 65.2977 33.0286 65.1874 32.9155C65.0771 32.8024 65.022 32.6561 65.022 32.4781V30.6319C65.022 30.4238 64.9653 30.2548 64.8519 30.1236C64.7385 29.9924 64.5792 29.9276 64.3739 29.9276C64.1778 29.9276 64.0215 29.9924 63.9036 30.1236C63.7856 30.2548 63.7274 30.4238 63.7274 30.6319V32.4781C63.7274 32.6515 63.6737 32.7948 63.565 32.911C63.4577 33.0271 63.3152 33.0859 63.1391 33.0859C62.969 33.0859 62.828 33.0286 62.7177 32.9155C62.6074 32.8024 62.5523 32.6561 62.5523 32.4781V29.6168ZM59.0331 30.6319C59.0331 30.4736 58.9657 30.3227 58.8293 30.1794C58.6731 30.012 58.4877 29.9276 58.2717 29.9276C58.0603 29.9276 57.881 30.006 57.7339 30.1644C57.5853 30.3227 57.5118 30.4781 57.5118 30.6319H59.0331ZM57.5133 31.4328C57.5133 31.5912 57.5761 31.73 57.7017 31.8476C57.8672 32.006 58.1185 32.0844 58.454 32.0844C58.67 32.0844 58.9075 32.0226 59.1695 31.8989C59.4299 31.7752 59.5938 31.7134 59.6582 31.7134C59.7991 31.7134 59.9156 31.7586 60.009 31.8506C60.1025 31.9426 60.1485 32.0648 60.1485 32.2171C60.1485 32.4886 59.9585 32.7134 59.5801 32.8913C59.2016 33.0693 58.7757 33.1583 58.3039 33.1583C57.691 33.1583 57.1962 32.9577 56.8177 32.5535C56.4393 32.1508 56.2493 31.6485 56.2493 31.0452C56.2493 30.4675 56.4424 29.9713 56.8285 29.5595C57.2146 29.1463 57.7063 28.9411 58.3039 28.9411C58.8615 28.9411 59.3227 29.1432 59.6888 29.549C60.0351 29.9351 60.2082 30.3921 60.2082 30.92C60.2082 31.1131 60.1638 31.2458 60.0734 31.3197C59.983 31.3936 59.8375 31.4313 59.6368 31.4313H57.5133V31.4328ZM51.4341 29.6168C51.4341 29.4494 51.4877 29.3061 51.5965 29.19C51.7037 29.0739 51.8462 29.0165 52.0224 29.0165C52.1679 29.0165 52.2966 29.0558 52.4069 29.1357C52.4973 29.2006 52.5647 29.2835 52.6107 29.3876C52.7256 29.2548 52.8436 29.1508 52.9646 29.0769C53.1101 28.9879 53.2634 28.9441 53.4242 28.9441C53.5851 28.9441 53.726 29.0015 53.8455 29.1146C53.9666 29.2277 54.0263 29.371 54.0263 29.5444C54.0263 29.7315 53.9589 29.8732 53.8226 29.9668C53.7368 30.0256 53.5621 30.0935 53.2955 30.1704C53.0289 30.2473 52.8482 30.3438 52.7532 30.46C52.6582 30.5761 52.6107 30.7752 52.6107 31.0573V32.4796C52.6107 32.653 52.5571 32.7963 52.4483 32.9125C52.341 33.0286 52.1986 33.0874 52.0224 33.0874C51.8523 33.0874 51.7114 33.0301 51.6011 32.917C51.4908 32.8039 51.4356 32.6576 51.4356 32.4796V29.6168H51.4341ZM46.2051 31.0467C46.2051 31.3333 46.2771 31.5701 46.4196 31.7586C46.5621 31.9456 46.7597 32.0407 47.011 32.0407C47.2622 32.0407 47.4584 31.9456 47.6024 31.7556C47.7448 31.5656 47.8169 31.3288 47.8169 31.0482C47.8169 30.7662 47.7494 30.5369 47.6131 30.3589C47.4629 30.1613 47.2622 30.0618 47.011 30.0618C46.7597 30.0618 46.5636 30.1553 46.4196 30.3438C46.2771 30.5309 46.2051 30.7662 46.2051 31.0467ZM110.976 14.2066C110.65 14.2066 110.351 14.1025 110.121 13.8717C109.898 13.647 109.79 13.3634 109.79 13.0497C109.79 12.7405 109.899 12.4645 110.118 12.2428C110.35 12.0105 110.648 11.9095 110.976 11.9095C111.301 11.9095 111.595 12.0135 111.827 12.2398C112.05 12.46 112.162 12.7375 112.162 13.0482C112.162 13.3619 112.053 13.644 111.83 13.8687C111.598 14.0995 111.303 14.2066 110.976 14.2066ZM110.973 13.3966C111.162 13.3966 111.313 13.2473 111.313 13.0618C111.313 12.8763 111.162 12.7269 110.973 12.7269C110.785 12.7269 110.633 12.8763 110.633 13.0618C110.633 13.2458 110.786 13.3966 110.973 13.3966ZM107.574 12.5022L108.2 13.2805L108.203 12.7164C108.205 12.5098 108.265 12.3137 108.416 12.1659C108.56 12.0241 108.747 11.9562 108.949 11.9562C109.152 11.9562 109.342 12.0211 109.486 12.1628C109.637 12.3122 109.695 12.5113 109.695 12.7179V15.3076C109.695 15.5143 109.634 15.7119 109.483 15.8612C109.339 16.003 109.152 16.0708 108.949 16.0708C108.729 16.0708 108.537 15.9758 108.386 15.822C108.383 15.819 108.381 15.8174 108.379 15.8144C108.295 15.7239 108.214 15.6214 108.136 15.5248L107.509 14.745L107.506 15.3091C107.505 15.5158 107.445 15.7119 107.293 15.8597C107.149 16.0015 106.962 16.0693 106.76 16.0693C106.558 16.0693 106.368 16.0045 106.224 15.8627C106.072 15.7134 106.014 15.5143 106.014 15.3076V12.7194C106.014 12.5128 106.075 12.3152 106.227 12.1659C106.371 12.0241 106.558 11.9562 106.76 11.9562C106.979 11.9562 107.171 12.0452 107.322 12.199C107.41 12.288 107.497 12.4042 107.574 12.5022ZM98.7994 9.83404C99.0308 9.83404 99.2192 9.90342 99.3632 10.0422C99.5072 10.1809 99.5793 10.374 99.5793 10.6214V12.5279L101.709 10.2518C101.856 10.0935 101.982 9.98487 102.084 9.92453C102.187 9.8642 102.312 9.83404 102.46 9.83404C102.55 9.83404 102.64 9.85515 102.734 9.89588C102.827 9.9366 102.91 9.99241 102.984 10.0618C103.057 10.1312 103.118 10.2111 103.167 10.2986C103.215 10.3876 103.239 10.4796 103.239 10.5731C103.239 10.6862 103.206 10.8009 103.138 10.914C103.071 11.0271 103.002 11.1191 102.931 11.1885L101.071 13.0286L103.287 15.3996C103.454 15.5761 103.537 15.7571 103.537 15.9396C103.537 16.1613 103.46 16.3423 103.305 16.4856C103.15 16.6274 102.956 16.6998 102.717 16.6998C102.665 16.6998 102.611 16.6953 102.553 16.6862C102.495 16.6772 102.43 16.6515 102.36 16.6108C102.289 16.5701 102.204 16.5052 102.104 16.4162C102.005 16.3272 101.888 16.2081 101.752 16.0558L99.5747 13.647V15.914C99.5747 16.1613 99.5027 16.3529 99.3586 16.4932C99.2146 16.6319 99.0262 16.7013 98.7948 16.7013C98.5635 16.7013 98.375 16.6319 98.231 16.4932C98.087 16.3544 98.015 16.1613 98.015 15.914V10.6214C98.015 10.3755 98.087 10.1825 98.231 10.0422C98.3796 9.90342 98.5681 9.83404 98.7994 9.83404ZM94.3105 13.107C94.6062 13.107 94.8482 13.0165 95.0382 12.8371C95.2282 12.6576 95.3232 12.4404 95.3232 12.187C95.3232 11.8838 95.2297 11.653 95.0443 11.4947C94.8574 11.3363 94.6169 11.2579 94.3212 11.2579H93.4541V13.107H94.3105ZM94.6276 9.89135C94.9095 9.89135 95.1899 9.93962 95.4657 10.0377C95.7414 10.1357 95.9896 10.2775 96.2072 10.4645C96.4263 10.6515 96.6024 10.8838 96.7373 11.1613C96.8721 11.4389 96.9395 11.7586 96.9395 12.1191C96.9395 12.4917 96.8859 12.8235 96.7802 13.1146C96.6745 13.4057 96.5213 13.65 96.3221 13.8491C96.1229 14.0482 95.8854 14.2021 95.6097 14.3091C95.3339 14.4162 95.0214 14.4705 94.6751 14.4705H93.451V15.9125C93.451 16.1598 93.379 16.3514 93.2334 16.4917C93.0894 16.6304 92.901 16.6998 92.6696 16.6998C92.4383 16.6998 92.2498 16.6304 92.1058 16.4917C91.9618 16.3529 91.8883 16.1598 91.8883 15.9125V10.641C91.8883 10.4253 91.9633 10.2473 92.115 10.1055C92.2667 9.96375 92.4444 9.89286 92.6497 9.89286H94.6276V9.89135ZM87.8942 9.73901C88.17 9.73901 88.3982 9.82348 88.5775 9.9909C88.7567 10.1583 88.9053 10.3936 89.0202 10.6968L90.6979 15.1266C90.7561 15.279 90.8082 15.4328 90.8572 15.5912C90.9047 15.7496 90.9292 15.9079 90.9292 16.0648C90.9292 16.2609 90.8603 16.4162 90.7224 16.5294C90.5845 16.6425 90.4022 16.6998 90.1785 16.6998C89.941 16.6998 89.7648 16.6334 89.6484 16.5007C89.5335 16.368 89.437 16.1809 89.3588 15.9411L89.1658 15.3438H86.6027L86.4188 15.9125C86.3223 16.2156 86.212 16.4238 86.0863 16.5339C85.9607 16.644 85.7952 16.6998 85.59 16.6998C85.3647 16.6998 85.184 16.6425 85.0461 16.5294C84.9082 16.4162 84.8392 16.2609 84.8392 16.0648C84.8392 15.9125 84.8638 15.7556 84.9112 15.5912C84.9587 15.4268 85.0124 15.2714 85.0706 15.1266L86.7467 10.6968C86.8616 10.3936 87.0102 10.1583 87.1894 9.9909C87.3702 9.82348 87.6046 9.73901 87.8942 9.73901ZM87.0653 13.9215H88.7031L87.9233 11.4464H87.9034L87.0653 13.9215ZM83.1065 9.89135C83.3179 9.89135 83.5002 9.96224 83.6504 10.104C83.802 10.2458 83.8771 10.4253 83.8771 10.6395V15.9125C83.8771 16.1598 83.8051 16.3514 83.6611 16.4917C83.5171 16.6304 83.3286 16.6998 83.0973 16.6998C82.8659 16.6998 82.6775 16.6304 82.5335 16.4917C82.3895 16.3529 82.3175 16.1598 82.3175 15.9125V11.3122H79.5046V15.9125C79.5046 16.1598 79.4326 16.3514 79.287 16.4917C79.143 16.6304 78.9546 16.6998 78.7232 16.6998C78.4919 16.6998 78.3034 16.6304 78.1594 16.4917C78.0154 16.3529 77.9419 16.1598 77.9419 15.9125V10.6304C77.9419 10.4223 78.0154 10.2458 78.164 10.104C78.3111 9.96224 78.498 9.89135 78.7232 9.89135H83.1065ZM71.7002 13.2684C71.7002 13.5852 71.7385 13.8702 71.8151 14.1266C71.8917 14.3831 72.0051 14.6048 72.1522 14.7903C72.2993 14.9773 72.4785 15.1206 72.6869 15.2217C72.8953 15.3227 73.1312 15.374 73.3947 15.374C73.6643 15.374 73.9049 15.3212 74.1178 15.2171C74.3293 15.1131 74.5085 14.9668 74.6525 14.7812C74.7965 14.5942 74.9069 14.3725 74.9804 14.1131C75.0539 13.8536 75.0907 13.5731 75.0907 13.2684C75.0907 12.9637 75.0539 12.6847 74.9804 12.4283C74.9069 12.1719 74.7981 11.9487 74.6525 11.7601C74.5085 11.5701 74.3293 11.4238 74.1178 11.3197C73.9064 11.2156 73.6613 11.1628 73.3855 11.1628C73.122 11.1628 72.8876 11.2141 72.6823 11.3152C72.477 11.4162 72.3008 11.5595 72.1522 11.7466C72.0051 11.9336 71.8917 12.1553 71.8151 12.4147C71.7385 12.6726 71.7002 12.9577 71.7002 13.2684ZM73.3962 9.73901C73.9034 9.73901 74.3645 9.82348 74.7782 9.9909C75.1918 10.1583 75.5473 10.3951 75.8429 10.7028C76.1386 11.009 76.3669 11.38 76.5262 11.8129C76.6871 12.2458 76.7668 12.7315 76.7668 13.2684C76.7668 13.7933 76.6886 14.273 76.5308 14.7058C76.373 15.1387 76.1494 15.5098 75.8567 15.8205C75.5641 16.1297 75.2117 16.371 74.7965 16.5414C74.3829 16.7119 73.9156 16.7978 73.3947 16.7978C72.8876 16.7978 72.4264 16.7134 72.0128 16.546C71.5991 16.3785 71.2437 16.1402 70.948 15.8295C70.6523 15.5203 70.424 15.1478 70.2647 14.7149C70.1038 14.282 70.0242 13.7993 70.0242 13.2684C70.0242 12.7315 70.1038 12.2443 70.2647 11.8084C70.4256 11.3725 70.6538 10.9999 70.948 10.6938C71.2437 10.3876 71.5976 10.1523 72.0128 9.98788C72.428 9.82197 72.8876 9.73901 73.3962 9.73901ZM67.1148 9.73901C67.4227 9.73901 67.7046 9.76315 67.9574 9.8099C68.2117 9.85666 68.4293 9.92755 68.6131 10.018C68.7954 10.1101 68.9379 10.2217 69.0375 10.3544C69.1371 10.4871 69.1861 10.6395 69.1861 10.8099C69.1861 11.006 69.1218 11.1764 68.9931 11.3227C68.8644 11.4675 68.7035 11.5414 68.512 11.5414C68.4354 11.5414 68.345 11.5233 68.2424 11.4886C68.1397 11.4539 68.0309 11.4177 67.9145 11.38C67.7996 11.3423 67.677 11.3061 67.5483 11.2714C67.4196 11.2368 67.2879 11.2187 67.1531 11.2187C66.8712 11.2187 66.6199 11.2699 66.4024 11.371C66.1833 11.472 66.001 11.6123 65.8539 11.7933C65.7068 11.9728 65.5919 12.1885 65.5122 12.4389C65.4326 12.6892 65.3912 12.9653 65.3912 13.2684C65.3912 13.5595 65.4295 13.8265 65.5061 14.0693C65.5827 14.3122 65.693 14.5233 65.834 14.6998C65.9749 14.8763 66.1465 15.015 66.3487 15.1131C66.551 15.2111 66.7777 15.2594 67.0274 15.2594C67.2527 15.2594 67.4396 15.2443 67.5912 15.2126C67.7429 15.1809 67.8731 15.1447 67.9865 15.104C68.0984 15.0633 68.1964 15.0271 68.2807 14.9954C68.3634 14.9637 68.4538 14.9487 68.5503 14.9487C68.7755 14.9487 68.9471 15.015 69.0651 15.1478C69.1846 15.2805 69.2428 15.4509 69.2428 15.6606C69.2428 15.8446 69.1846 16.0075 69.0697 16.1493C68.9548 16.291 68.797 16.4102 68.5978 16.5052C68.3986 16.6003 68.1688 16.6726 67.9084 16.7239C67.6479 16.7752 67.3737 16.7993 67.0841 16.7993C66.5632 16.7993 66.0944 16.7104 65.6777 16.5339C65.2594 16.3574 64.9071 16.1116 64.6175 15.7993C64.3279 15.4871 64.1058 15.1161 63.948 14.6892C63.7902 14.2624 63.712 13.8024 63.712 13.3091C63.712 12.7843 63.7917 12.3031 63.9526 11.8672C64.1134 11.4313 64.3417 11.0542 64.6359 10.739C64.9316 10.4223 65.2901 10.1779 65.7099 10.0045C66.1327 9.8265 66.6 9.73901 67.1148 9.73901ZM58.3575 9.83404C58.5888 9.83404 58.7773 9.90342 58.9213 10.0422C59.0653 10.1809 59.1388 10.374 59.1388 10.6214V12.5279L61.2684 10.2518C61.4155 10.0935 61.5411 9.98487 61.6438 9.92453C61.7464 9.8642 61.872 9.83404 62.0191 9.83404C62.1095 9.83404 62.1999 9.85515 62.2934 9.89588C62.3868 9.9366 62.4695 9.99241 62.5431 10.0618C62.6166 10.1312 62.6779 10.2111 62.7254 10.2986C62.7729 10.3876 62.7974 10.4796 62.7974 10.5731C62.7974 10.6862 62.7637 10.8009 62.6963 10.914C62.6289 11.0271 62.5599 11.1191 62.4895 11.1885L60.6295 13.0286L62.8449 15.3996C63.0119 15.5761 63.0946 15.7571 63.0946 15.9396C63.0946 16.1613 63.018 16.3423 62.8633 16.4856C62.7085 16.6274 62.514 16.6998 62.275 16.6998C62.2229 16.6998 62.1693 16.6953 62.111 16.6862C62.0528 16.6772 61.9885 16.6515 61.918 16.6108C61.8475 16.5701 61.7617 16.5052 61.6621 16.4162C61.5626 16.3272 61.4446 16.2081 61.3098 16.0558L59.1373 13.647V15.914C59.1373 16.1613 59.0653 16.3529 58.9197 16.4932C58.7757 16.6319 58.5873 16.7013 58.3559 16.7013C58.1246 16.7013 57.9362 16.6319 57.7921 16.4932C57.6481 16.3544 57.5746 16.1613 57.5746 15.914V10.6214C57.5746 10.3755 57.6466 10.1825 57.7921 10.0422C57.9392 9.90342 58.1261 9.83404 58.3575 9.83404ZM53.579 9.73901C53.8547 9.73901 54.083 9.82348 54.2623 9.9909C54.4415 10.1583 54.5901 10.3936 54.705 10.6968L56.3811 15.1266C56.4393 15.279 56.4914 15.4328 56.5404 15.5912C56.5879 15.7496 56.6124 15.9079 56.6124 16.0648C56.6124 16.2609 56.5435 16.4162 56.4056 16.5294C56.2677 16.6425 56.0854 16.6998 55.8617 16.6998C55.6243 16.6998 55.4481 16.6334 55.3316 16.5007C55.2167 16.368 55.1202 16.1809 55.0421 15.9411L54.849 15.3438H52.289L52.1066 15.9125C52.0101 16.2156 51.8998 16.4238 51.7742 16.5339C51.6486 16.644 51.4831 16.6998 51.2778 16.6998C51.0526 16.6998 50.8718 16.6425 50.7339 16.5294C50.596 16.4162 50.5271 16.2609 50.5271 16.0648C50.5271 15.9125 50.5516 15.7556 50.5991 15.5912C50.6466 15.4268 50.7002 15.2714 50.7584 15.1266L52.4345 10.6968C52.5494 10.3936 52.698 10.1583 52.8773 9.9909C53.0565 9.82348 53.2909 9.73901 53.579 9.73901ZM52.7516 13.9215H54.3894L53.6096 11.4464H53.5897L52.7516 13.9215ZM49.3505 9.89135C49.5879 9.89135 49.7779 9.9547 49.9188 10.0814C50.0598 10.2081 50.1303 10.3815 50.1303 10.6033C50.1303 10.825 50.0598 10.9984 49.9188 11.1251C49.7779 11.2518 49.5879 11.3152 49.3505 11.3152H48.445V15.9155C48.445 16.1628 48.373 16.3544 48.2275 16.4947C48.0834 16.6334 47.895 16.7028 47.6636 16.7028C47.4323 16.7028 47.2439 16.6334 47.0998 16.4947C46.9558 16.3559 46.8838 16.1628 46.8838 15.9155V11.3152H45.9784C45.7409 11.3152 45.5509 11.2518 45.41 11.1251C45.269 10.9984 45.1986 10.825 45.1986 10.6033C45.1986 10.3815 45.269 10.2081 45.41 10.0814C45.5509 9.9547 45.7409 9.89135 45.9784 9.89135H49.3505ZM48.9904 32.4781C48.9904 32.6515 48.9368 32.7948 48.828 32.911C48.7208 33.0271 48.5783 33.0859 48.4021 33.0859C48.2765 33.0859 48.1646 33.0482 48.0666 32.9743C47.9685 32.9004 47.8965 32.8129 47.8521 32.7149C47.6054 33.012 47.2699 33.1598 46.844 33.1598C46.3369 33.1598 45.9079 32.9547 45.5571 32.5444C45.2062 32.1342 45.03 31.6349 45.03 31.0467C45.03 30.4585 45.2047 29.9607 45.554 29.5535C45.9033 29.1463 46.3338 28.9426 46.8455 28.9426C47.0769 28.9426 47.2684 28.9743 47.4216 29.0392C47.5748 29.104 47.7188 29.2202 47.8552 29.3876C47.9057 29.2835 47.9701 29.2006 48.0513 29.1357C48.1524 29.0573 48.2688 29.0165 48.4052 29.0165C48.5752 29.0165 48.7162 29.0739 48.8265 29.187C48.9368 29.3001 48.992 29.4434 48.992 29.6168V32.4781H48.9904ZM113.11 11.38H112.579C112.329 11.38 112.136 11.3031 112 11.1493C111.865 10.9954 111.796 10.8159 111.796 10.6108C111.796 10.3981 111.863 10.2156 112 10.0618C112.136 9.90794 112.328 9.83102 112.579 9.83102H113.955C114.191 9.83102 114.379 9.88079 114.518 9.98487C114.707 10.1266 114.8 10.3574 114.8 10.6726V15.8702C114.8 16.1583 114.722 16.3785 114.566 16.5324C114.41 16.6862 114.206 16.7631 113.956 16.7631C113.699 16.7631 113.493 16.6877 113.34 16.5369C113.187 16.3861 113.11 16.1644 113.11 15.8702V11.38Z" fill="#2B2A29"/>
<path d="M39.5747 18.0739C39.5747 21.6787 38.1775 25.285 35.383 28.0361L25.2637 37.9984L15.1444 28.0361C12.3499 25.285 10.9526 21.6802 10.9526 18.0739C10.9526 14.469 12.3499 10.8627 15.1444 8.11156C17.9389 5.36043 21.6005 3.98486 25.2637 3.98486C28.9268 3.98486 32.5885 5.36043 35.383 8.11156C38.1775 10.8627 39.5747 14.4675 39.5747 18.0739Z" fill="#FECC00"/>
<path fill-rule="evenodd" clip-rule="evenodd" d="M14.864 17.4752V13.3787H19.0236V17.4752H23.1831V13.3787H27.3442V17.4752H31.5038V13.3787H35.6634V17.4752H31.5038V21.5702H27.3442V17.4752H23.1831V21.5702H19.0236V17.4752H14.864Z" fill="#2B2A29"/>
<path fill-rule="evenodd" clip-rule="evenodd" d="M31.4381 28.6124C29.8586 27.0558 27.6754 26.0935 25.2639 26.0935C22.8524 26.0935 20.6692 27.0558 19.0881 28.6109L25.2639 34.6908L31.4381 28.6124Z" fill="#2B2A29"/>
</g>
<defs>
<clipPath id="clip0_4615_927">
<rect width="129" height="40" fill="white"/>
</clipPath>
</defs>
</svg>
