<svg width="21" height="18" viewBox="0 0 21 18" fill="none" xmlns="http://www.w3.org/2000/svg">
<path fill-rule="evenodd" clip-rule="evenodd" d="M4.38109 10.769C4.42406 10.7833 4.46824 10.7937 4.51309 10.8C4.79601 11.4667 5.07734 12.134 5.35709 12.802C5.86009 14.004 6.36709 15.242 6.47809 15.598C6.61709 16.036 6.76309 16.334 6.92309 16.538C7.00609 16.642 7.10109 16.734 7.21309 16.804C7.27143 16.8405 7.33386 16.8701 7.39909 16.892C7.71909 17.012 8.01109 16.962 8.19409 16.901C8.30148 16.8644 8.40366 16.8139 8.49809 16.751L8.50309 16.749L11.3291 14.987L14.5941 17.489C14.6421 17.526 14.6941 17.557 14.7501 17.582C15.1421 17.752 15.5221 17.812 15.8801 17.764C16.2361 17.714 16.5191 17.565 16.7301 17.396C16.9724 17.2007 17.1655 16.9514 17.2941 16.668L17.3031 16.646L17.3061 16.638L17.3081 16.634V16.632L17.3091 16.631C17.3265 16.588 17.3399 16.5435 17.3491 16.498L20.3291 1.47301C20.3385 1.42492 20.3432 1.37602 20.3431 1.32701C20.3431 0.88701 20.1771 0.46801 19.7881 0.21501C19.4541 -0.00199036 19.0831 -0.0119905 18.8481 0.00600952C18.5961 0.0260095 18.3621 0.0880095 18.2051 0.138009C18.1172 0.165864 18.0305 0.197223 17.9451 0.23201L17.9341 0.237009L1.22009 6.79301L1.21809 6.79401C1.16154 6.81481 1.10583 6.83783 1.05109 6.86301C0.91855 6.9226 0.79141 6.99353 0.671088 7.07501C0.444088 7.23001 -0.0789121 7.65601 0.0100879 8.36001C0.0800879 8.92001 0.464088 9.26501 0.699088 9.43101C0.827088 9.52201 0.949088 9.58701 1.03909 9.63001C1.07909 9.65001 1.16509 9.68401 1.20209 9.70001L1.21209 9.70301L4.38109 10.769ZM18.5191 1.61701H18.5171C18.5085 1.62083 18.4998 1.6245 18.4911 1.62801L1.75709 8.19301C1.74848 8.19649 1.73981 8.19982 1.73109 8.20301L1.72109 8.20601C1.69052 8.21802 1.66049 8.23137 1.63109 8.24601C1.65892 8.26195 1.68763 8.27631 1.71709 8.28901L4.85909 9.34701C4.91524 9.36593 4.96894 9.39144 5.01909 9.42301L15.3961 3.34801L15.4061 3.34301C15.4464 3.31851 15.4878 3.29583 15.5301 3.27501C15.6021 3.23801 15.7171 3.18401 15.8471 3.14401C15.9371 3.11601 16.2041 3.03701 16.4921 3.13001C16.6448 3.17816 16.781 3.2683 16.885 3.39013C16.9889 3.51196 17.0566 3.66058 17.0801 3.81901C17.1173 3.95776 17.1184 4.10374 17.0831 4.24301C17.0131 4.51801 16.8211 4.73201 16.6461 4.89601C16.4961 5.03601 14.5501 6.91201 12.6311 8.76401L10.0181 11.284L9.55309 11.734L15.4251 16.236C15.5043 16.2693 15.5904 16.283 15.6761 16.276C15.7192 16.2702 15.7598 16.2521 15.7931 16.224C15.8336 16.1898 15.8684 16.1493 15.8961 16.104L15.8981 16.103L18.7881 1.53001C18.697 1.55191 18.6078 1.58066 18.5211 1.61601L18.5191 1.61701ZM10.0581 14.011L8.88609 13.113L8.60209 14.918L10.0581 14.011ZM7.81109 11.331L8.97609 10.206L11.5891 7.68401L12.5621 6.74601L6.04209 10.563L6.07709 10.645C6.48829 11.6164 6.89496 12.5898 7.29709 13.565L7.58009 11.765C7.6057 11.5981 7.68713 11.4457 7.81109 11.331Z" fill="#292727"/>
</svg>
